<mxfile host="app.diagrams.net" modified="2021-06-28T13:43:11.446Z" agent="5.0 (Windows NT 10.0; WOW64) AppleWebKit/537.36 (KHTML, like Gecko) Chrome/91.0.4472.114 Safari/537.36" etag="aGQwF6uIf_AtU-3oObcG" version="14.8.2" type="github">
  <diagram id="vmg8vSkCJ7_VyI0iQCHh" name="Page-1">
    <mxGraphModel dx="1108" dy="482" grid="1" gridSize="10" guides="1" tooltips="1" connect="1" arrows="1" fold="1" page="1" pageScale="1" pageWidth="850" pageHeight="1100" math="0" shadow="0">
      <root>
        <mxCell id="0" />
        <mxCell id="1" parent="0" />
        <mxCell id="ZKgTmK-BCxke4X23e9xm-3" value="" style="shape=image;verticalLabelPosition=bottom;labelBackgroundColor=#ffffff;verticalAlign=top;aspect=fixed;imageAspect=0;image=data:image/png,iVBORw0KGgoAAAANSUhEUgAAAbgAAADcCAYAAAAC2LRLAAAgAElEQVR4AeydB3yURdrA1+7p6efp3ek1r3x3nl6xnadnQw89xY4o2FCqiHSUJtIJvSaEkEoSEggh9N5LCiGkJ4QkENLbZneT3Wyv/+83s/uGEKl3nh/Cbn5P5m2778wz785/n5lnnlHhf/k14NeAXwN+Dfg1cAVqQHUFlslfJL8G/Brwa8CvAb8G8APO/xD4NeDXgF8Dfg1ckRrwA+6KrFZ/ofwa8GvArwG/BvyA8z8Dfg34NeDXgF8DV6QG/IC7IqvVXyi/Bvwa8GvArwE/4PzPgF8Dfg34NeDXwBWpAT/grshq9RfKrwG/Bvwa8GvADzj/M+DXgF8Dfg34NXBFasAPuCuyWv2F8mvArwG/Bvwa8APO/wxcVRpwA+3FhZv24sCNA7B3ECsgxAW0YsGCzas3twWcJsCE21SJzVRHQf5RoiJX0rPnZ8StTsQp3wUWuwU7zrOLx43dAyabs60+bC5wusU9PfKY1WrG7bSfV3DYEaJc53LZEeJwf7vi9DgR4vL9ufH/fR800PZwXSUbfsBdJRXtL6ZXA+3hdrZtATAhAnJnE721FTcCQg7sLh3YWkBXzZFdKxkxoCuPPfgLbrlJxU3X34JKdRNPPPk0LSY9dpcXiGcDnISF243T7cZoFhj95svlFLnySHApEDtf6gfc9wE3330ev/lkXdlH/IC7suvXX7qL1YAwks4lbZ/hRN9aj92lweZsRK8tZf/aSIImDOSL3i/y9bCurFw+g/4fv8HtP7iZ66+5nr8+9JDv3R4JOcXyaUvdbtxSnLjdToSVprw8LidCMjMySFq12nvY4QL7OUSc81twflvyPBpQnq2rJfUD7mqpaX85z9SAD2YeYYydzZQTxxRzzu0EtxXcRsBI+fGDJMXPIWTuMKJnDefIhiWcSo+jIDmS2uId7N8exc/vupk7b7+VRx99WHZNCqBpW7SyW0+A7LS48biEOPG47eA0yvu0ttRQUZrH8M/78uxjf+MGlYr48Aiw2y8s/i7K8zTx373VdDnd8cwvwZW/5wfclV/HV1gJFRpdYrEU60x5mxjbstmleKxixM33sgiAuHHqDdi1WnDZ8WhqAT2ZO1cya9THzBv/EYlLvyRrxxJqj66m/mg8tVkx1GTHUF2QwInsJIYOeIvbblbx/HNPYndYMRhaaDXq5XiY0n3odroQgHVaRGcoXrg5tYCOuTMG80G3p+n59gvcd/f/cOd1Kn7/k9vZkRSHXdcIVoNXHKJLUxRODBpaQew7rW1jcApI2yxG39jZf7qvjL0p6eXUiPvzcm4NeB+Uq+e/H3BXT11fISX9DwCnaEDwQHTz2WwSBriEo4gZ7EYw63HrNdCqBZMOe0URW8PmMbxbJzYsGU/hznAKdi7hxIEQ6jOiaTwaQ2NmJI1ZodRmh1KVE4m2bDP7tyzljptV/P63P5N3FYD75hiaC4NW77UUnXaw6cDTxND+LzP8087kpa0kLzmR/INrSAiZxr8e+y2/vE1Flyf/SG7yBtytNeCxCDIqJQOPC9wOP+D8NtxZNXD6Qbk6tvyAuzrq+Qoq5X8AOAE28Xa7C7fJirNVj8vcCPY6cNSDswFaK3DrylgTNpsFo/sT9GVvDkTOpObQanSZ69BmrqI5Kw51ehjl+xagORqKOjOExuzF1Ocsxlixiur8GOqLNvPq8/dLh5PMzAwcTq+TibDe5DiZ7Gp0Sbi5WsU50Q2qZ0T/N1g4tRe6iu1oy7dQnB7Nqcw4Cg6EUp27ml2JU5gw7GXuvVPFv576JRGBszBp1CA+94yXB9yutq5QxWLraNF13O/oBKO8r2OqWG5Kem6bwX/mctLAGY/IVbDjB9xVUMlXThHdyD490a+nDJ517Ho8Y0BNWDbtRXQ/mqWV5mppwqGtgtZStGX7yN4fza6EOYTN/pzpw94me0c4J/bHUb4nBlPeJrRHEmjOTEBzJAZLUSLGghVUH1qIOlMBXBD1OUHUZAejPr6KqpwEgmcO5vprVAwbOUxWQXs3f8UZRJxwtrbibm1i7uQhxC8bS3V+IpoTiZzMCKbiaIiU8oxl1OUtpzJ3OQ0liZTnx7IqfDRDe79Jt5eeYcqowRzYsob6E3nYtDWAsOy83ZUSfi67t7vVbZdjfW63HSHe8T+vo4vw4hRil1MW3HI6Q0ewKfsK2JT0cmrE/Xk5twaunLbg4kriB9zF6cl/1XesAWFouTzgcHmw2+1SXA6bbKTxWPFYm71jVqKrUVzsET2OFixWPXanAY9s4C2YHTpcnha02nJKi1KpOHaI4+lb2LlyAREzBrLkqx6snNOP/THjyNk4G23OatRHV6LNW0NzwVqqUiIoPxhK8e5FGIrW0JQTR016JBWpYdRmRNGYvQJNXjyawpVSGvPjUResQVeyiaZTB/jf39zFr379SzTNTVKDyrw0kbqd3ikBZn0ty0Ons39biLTa1MfjUReGoi8KxVgUQUthBI25oVRnh1JbGI/ulM+yy0rkVEYSjfk7SF8XzNKv+zK+z8usWvAlhbtiOJG8Dm1RphfqHsVKNIFHzNvzdW0K/ots+H4ziHl3p38SeOQcvtOz3RScnU7P3ZT6z1yOGviOv8b/77fzA+7/vQr8GTibBpSOSIvN54Ah2uFWAwiPRnur9GaUM9WkNSc8Rixe6GHEaqykujyTwrzdHNyXwLbN4axPWMi2xMXsSJjH+vDx7F81XY6j6bJj0WREok4Lpe7QUiwFK6lPD6XswGJ0BQmcOhTOnKGv8PqjtzHh0+c4snmh9JhsKFhPZWYC9TnrpNTlrqM+bz3qY5vRFW+j+cRO1CcPsmNrIrfefisffvyhHBNRLCCRCgvK5dSzMjaQ+OgZVJXuoK54LVV5EVRnBVKXuQhH2SpsZWuwlG/AVLmV42kxHEuLZ0/SQo7uDOf4/gjqMlZSfyQOXVYC+twkstfNZmPgENYuGEbM1BGETxjJ1M8+Ym3YPAz1x3Fb64Bm8LSCmE2uvISBLFR5FsidRtqZW5djI+7P07k1oFT11ZL6AXe11PT3rJwK4JRsuxwODFotn/ftzduvdObrYZ8SOnsC8YsCmDfqMwKG9mTp5MEkBn/NhuWT2bNmDsmbFrNv7Tx2JkwnbdMiylJjKdkfRnlyJDVpEVQlh1B5YBE1hwJpOBxC05FQ1EfDacwMpyJtCbtixtKz8wPcd6uKX9+k4hc3qPjz3dfx4C9upMvf72Vg907MHdubiNkj2BIzh9TNoZSmr6MyZyua0n00V2dTW1XKmK/GoFKpWBS0UM6FE5O+hTicFsrKCnm1y9OsXrGYmrJDGNVpYM5AX7WBzB1z2Rr5FRHTBjDq48689+JfeeGRe+n04K946Hd30v3FhyhLjpGOLhUHllJ/OJLy/cE0HY1FnRHDiT2hnNwdx7qFE4mcOpzP3n6Wx+77H1565vcsmj2c2rKjbR6Y7hYxBuiz5MTQoICcR1hzXivuTKyd3jt3U+o/czlqQPk+XS2pH3BXS01/z8rZHnBiInRsdBT3/e7X3HytihtVKn730x/S9dmH+OqT14mZNojkFXPITFpA7sYFHNu+kJJ9QZSnhFKZFs6pg0s5uW+JbPwFBLRHo9FlxtB0JIrGjHDURyOlJ6Q6K5qaI+HUZ0eTt3sev/6BittVKv581x1ojxegP3WchuM51BUdpSzzELkHtpK+Yy1b40MJnzuRWWMHMrJPN/r1eIFu//obnZ/8E489+hd+es9PJOCuuV7Fg4882CYPP/IXfnzXbdx8g4oHH/gVnZ95gIf+9CN+9wsVf/y1imceuYt3XniUNzs9wkt//zP/fOQ+OR/uJpWK/7lWxZvPPIg6dw1Nmd5yVBwMlNvVKUupPBREXVoE9anxlO9fQV16EoW7I9gUNZHhvZ/n4f+9jp/eouKzD7pSU1B4ul9SGMyiu9IHOdFN3L6LUrFATyPOu3U5Nub+PH1TA9+zZuA/zq4fcP+xCv0f8N/WgNls5kRJMY89/FcJt5/96FYWTB1L7u51FG2Nonp3JFW7wijfHkjV7kBq9y+i7sBCGpIX0ZgShDp1CeqUpbIbUpMeLgHXkBZJ45FYinYFUXk4mvqsBKoyVtJUsAFd8RbKMuLp//Y/+PmN1/PEbx/AUq32WjgWG1gsYLV6RXhDirlnwonDKaYbCDF6xSWikrhoNTZTXlFGXn4ORcXHyczJ5sCBfWzfvpWdO7awe7uQTezesY7q6iKMxipATCsw4LKZcVtseMwWMJpJionmzuuv5/ZrriF05lhqM+N9ji6hNB4NoTEjlIYjy1CnL5PlVaeFU58aQV1qFDVpUZSlRVB2NIbsfUHELxnBey8+xI+vVTHog7c5kZkOZiseixOHyY2ILiZ+aIiXAjYlvVwB582x8vPoyk+/ibDzH/FV51WT+AF31VT197ugVrMJm0nP7GmT+PmdP+RPv7mHlA2x1OxfxYl1C9EciKRxbzCN+xajPrAI9YF5NB1agC5lEZqUQDQpXsg1pIRQeTCEoh2BTOr7PH/6kYouf/s580b3YvfKRWTujOXAhmXsSgpiyog+3KG6jk5/fQJDtZj0fZaoJ+KY9MoQHjGiX0/M3PZJGx6E7j3SZd/msGN3OuS2tzFW3ECV1IUDJxasWD12xBxwwTab2Y3DbGfrmnX86MYbuPPaa9iXGEZt5grUWcFSGo8G0Xg0GPWRJTSlL0F9OAhNWrAEfENKELUpSyhPDeRk6mJKUhaRu2cBJw+vYN+q+XR9+g/cc6OKfu++Rn56CurKGlxWUTAxq8ImAWe0tJ4TdOdvVr+7s37AnV/X3+9W4NJz7wfcpevM/47vUAOie7Lt5XbIidlZqfv56O1X6PVGJ07siKbpQAyGwyup3xdCw4Fg1IcC0RxajCZ5IU3JiyXcGlOXUp8ahiF/NftXTOKF+2/hLpWKn16j4gcqr/z0BhV3XaPihyoVP77pWu644VquV6no8kxntNUNXpC1Ac0HNteZMxeUGQwidThc2Gw2LHYbDpeweTzo9C2YhAXoe8loKlYnLrsLu8OD1S1WK/DabzoX6BzQbAOD1YXFbGPvti3cdq2Kp//ye0oPb5DdqeqcJTRlL0GdFSSl6ehiNBmL0aYvQnd4Edq0hVLU6YsREKw7Gkhl+kJOpMyjYPcsKtPDqM1eyc74AF576vfceb0o8xMsmTuHI4dTfeN0HkxWUxvgFAvu/M3pd3/WD7jz61x57q6W1A+4q6Wmv+fltFnMeOzC1d0HPHsrQVPHMrnfW1TsjqH2YCx1ByOoS15CQ/ICmlJnS1EfWiAtGAG4urRlaHLiKN4dxquP3M3NKhU/UqmYNOILYoKCmT1+IuOHfcHITz/nnVff4Pknn5ZjZ291eY2GmtrTbaeAnE/cYpaC8M9oL+KYOC+MMl+OBeAE6Mw2q4Sew+FAOM6IMF02ix2bAJjNg8kBrW5o8YAAnNYJzXYXBqsDi8XCvu1buVWl4ou+71B2ZC31ORGocwJpyglEnbVYStPRhUg5sgBd+oLTgEtbQNnuqZzcH0BV6hyqDs+j7NBsKtMXU3JwAcWHQsjdE8HI3q/xs1tV3HqNiueefkJOvxDlEN2TCtiU9PzN6Xd/9nQlXfndk6Ksl/rnfSKvnv9+wF09dX2ZlvRcDVHH7Pp82AVJPHZv8GOXmdQtiXzW9Z/k744hZ9tCinZNpzx5EhUpozi1/wtqU2bRmBZIQ/pi6o8EUZW6jJbCDRxdG8z/3qLiN3fdTlZamryZUafzdjPaHDTVNZB7NIuH/vwXer73PjaLbxkbXzaEO/3FiHDSECKulTB0uxFL37icHtwOT9u8dXHOJWZAODxYHG4sLg9Gh4tWu5VWmwmTxYbVbOF4dqa0MEf1fZua3A005EbSlBuMNidYWnHarCVoMoO8krEY3RFhyQVK0RxejDptEQ2pC6lLWSClNmURVSmLqEhdQFlaINm7FlOUksC4gR9JuEeFheARHieS6QrWxAp6Z/55aa50s/rT704f5/r+nOt4x+/Vlb3vB9yVXb/fg9Jd7BfRd53sA7SfhpxZz6518bz53AMymn9ZeiA1WTPRHJuO41QgDUcW0pi2RKZiuz49BH3+WurSkuj98pP86KZr2LV1KzZjqwyhZW014rE7MBuN1FRV88hDDzNo4Oc4rN5QWx0VeiHInQ9wAnJKl6YXcB7ZrWm3O7E7fRaf3SAnrwu42U0WctJS+NH1Kr4a2J3a/PXnBZy3qzLoG4BrTBEOOAukE05dciC1KYFUpSygPHWRdEI5kbaGwR915e9//iO5mUfaBh6FBXcm1k7vfXcNuh+eZ+r6XN+fcx3v+ARf2ft+wF3Z9fs9KN3FfhHbA044P3gh57a2YtXVkbE/ief/dhdZu+dTlR1IY8F8GnPmy/ltDYdDpQUnrDhDXhT6vARsx/cQP+cr2U05Z9YMTK16qSuj3oDTZpcWm1bdxOOPPcbUSZPlMdzCFGsbkpLbFwJc+/MdLTgBuPYixuyECMDZHE7ZnWmy6TFbmrGYzNiMZpJ37eCum1RMGd6ThsJNqPNj0OaH0pwXii53Gc05y9Blh0jRZi2lOXMp2qPBUpqOBKJYcQJyjSmL8QJuCRUpgZSlhlK4L5Kd8Yt44r57WRO93NfXinSKUbooBda+oYiOivHvf0c6Otf351zHvwdNwreYRT/gvkVl+j/q39HAxX4RfdcpJk/71CHc8a2k71/F253vZV/SRDTHY6jJCKY+bTkNQtLFBOggjIXL0WUtR5exhtK9qyXgPny/R9uAmYCbWMZGWHDVlVU8+cQ/CFy4SFpw4rhs29tluT3ALrR9NsApUGsDm82B1WLHbLVLZxSjtRmjqUXmR1iXuzau58c3q5g5ui+NxzbTVBCLriCMlvwwCblLAVxD6mKv9Za6VM4ZPJkSQ/6eOPp27Uy3fz2PWavx9q2KNcx9y+z44dbhF87/O8jbPYwdH86z7v8739Hv73v8gPv+1t0VkvNL/IIqYDvjyyvG5SzgMbB3cySvPvtrsnYFoz22ifqMNRjyNsoJ0LrcMIyFkWgzw2g5Gk9zwS6e+dv9vNj5eVw2Kw6LWcJNeDSaDK206Jrp/s67LI+IbAOccnslldDyOZWI7fNBTrlWsdpkV6TojvSJzQc34S0pxtyMZjOtZrGOXDMmgwmz3sTeLVvlXMCAL/rQULgFXVE8+qJIDMci2yDX3pJryQqRVpyw5DQZ3u5KacWlL6YhPYiqtEBKDwZRsC+Mw1vCGNLzDV7r9ATVJ45jbRVz8UQgZqcEnB9ulxvcRH4u8ftzhbQaF1sMP+AuVlP+6/5LGrjEL6ggi/xSe/8rDo1uORnNCh4ji2aM4vWn/0DmtmjqM7bRkrMNS8l69AXRWIqjsJXE0JoTS216AhNG9Od/f/sbTpWUyPIJK81hdbQBbuCAAaxZnegFn8MhHUOEc0ibtIPbpQBOWGwCaO1FWG4CbmaTFaPZSqvJiMHUjKFVh1FvxNRi/Abgmo+vpKU4CsPxKPSFEW2Qa8kNld2V7QEnuip1R4IQXZVCGjKWUHU0mOqcOMqzNjLoo1cY0b8n5UWFbRathJvbO9bm75b0A+6/1Aj81z7WD7j/mmr9H3xxGrhEwLX9YvV66ovIUmIlNJGKZrhZU0fdqeM8+9B9/P1393Di4A6oy0eXn4T+WAzWEzHShd6cHwMNKcwcP4w7bv8hWzeuk9k9E3BaAqZNY9+ePfKc8KRsA5sCuX8TcMJqE0BrL21wM5ppNZkxGFtpMerQG7QYWloxNrd+A3C6klUYSpZLEZacWHlAdFdKyQ1Fn72sTQTsBOSEJSe6a+szg6nLC2fv2mn0e7cT0UFzsBqaZVmFv6Tw3hRL54gfEW7ZFafMfRANvfcHhlJ7/yn8xOd776FARPnpoux3TGUWLmGc61Kv73i/i92/UL4vdP5i76OUR6mBi02V910dqR9wV0c9X8alvNgv5pnXiT3RVAi4CQd+IW3rDng8fD1iOP+jUvHAHbdRdnAL9ZmJqLMioHo19hPLSV4xmC/fe5AP33iaX9x1G1HBi+UK32LitfCYFE4nLTotoUtDOJouPAmRjh6XCjilW1Kx7kT3pGK9KXBrDzajgFurCYPRREurgWaDlpYWHXqdgVad4ayAayn1Aq7ZB7iOY3L67DCEtGSFohHhvI4GS7jVZIWSvWcR44e+QUn2XqwtGq8zje9psSHWhlOm/ImfD8J6FloXjbB363S3pdJwK+eVhloAUhxT6s/34W1jV+IzFe9MsS1qURHls5T3nC1V7nOu9GzvacfFjqfbf0zbOXGww0tUqCyXyKuST3GdmM7v8PUxiGK3P6c8tUovhNg/y2efNQ8d7q9c06ZXRb8XSjt8zhW+6wfcFV7Bl3/xLvSFPPt50bCKZsSKG7NP7OKY27uydXx4BD++/gYZLPmhu2+j/HAC2vw49kT1o8+LNzGqx73kbZvN9tgAHvr1HQQGTAaLVbriC0vNabdSV19DUFAQxcWlbWq8FMApcGsPtfbjbKIrUhEFbBJuBiPN+lYZ9UTbokWra6JZo0ffpGfH+k0y4PLEoZ9Qf2w7xooNmMtXoS+NpbloObpjUbQURqErEJZcBC254eizI2jO8Ur90RDqc8LQn4xn/9pJLF8wmpaq416ouB3Sq1OsoGP2eKTYxfI5EnIOEGvKiXmIQKvVJn9ciCV/EOvaiYVkhYhPEvE47d5oLR6Xb/zOLZYHcsv1/cQaf2Liu1wPz+1dn04EKPMgpmIYcVvU8ieLxSJiuiAha7Y7ZLetNy8eiRGBktPgVJ4TpeUXabuXb7ftKt88RsmmdtFolH2ZiovFhseJx+bCYfKWXWZIxB8VP6s8wvvWW26xbqHJYRBB1qRuZE58cwjFJwld4BFAFFEBFNNfrLx+OhqOeL7k+K4vfyYRq833ar+tHPtm+ZUSnis9/c6rYcsPuKuhli/rMp7ri3j+48KaEDEbrTgx+1I7TmxOb2OTumc3f//jH7nFF47rn/f/kOkDnyVxwXvkbBpL6Z4ZlCcHcWTjIt56+o9M/WKIXFnb3up1xxcW3MmTpQQEBFBUVOzVoJisrXRNKqnSTvnS9k4mog1rD7f2Y2xynM1oRoBNgZvBYESIvqUVXYsBbXOzXChVo1Wja2qhWd3CxoQ1MnzYI7+9ky2x02k8lkB9QQSGE/G46jbQWhJHc1EMLYXR6PKjJOCac8LQ5USgyY1CUxjH8eRgju5ZSMT8wWDVgtHoXT6gnTWhYELUgiiTBJnbTEHKAZK3bpUWplCKyyVWDTeC1QgOATU7bo9vJXHRoAtoisVd3c62CeNeZYo7iKkeYo0/vYSbx21GXZ7N5pVBZB/Z67OMvFcLsMlwZ06XBKXH48ErPsW3WTJKzpUUOa5pNXnnMYrPEWVqV1TvDZT/wuASHBMiYou6RZnOMgfS3kp5cQabk8Joqi/yrTAPFpdBxhEVP7PER3lfIi/ink4Q+nLbThOtfUZExnz3b3vOvO+U/5W6kM+Yr/x+wLVT0Fk2/YA7i1L8h75LDYiv7flEyYvvGvHt9k03FoATUBO/l8WfC+GcoQaXEadBzf2/vJO7b1LJrsrP33mcmqNxHNsxm7L988jeMIHyQ8GUpcYxpt+bfNrjTQz1dbiEVWVopUldR3ZOBiNHjqQg/5jMhNPmvGTAte+ObG+tKWBTUsVyE3BraRZw06PRaWnSqmlqakTb2IyusZkNqxLlRO9OD/6a7p3vo/sLdzNr5POkb5pC6wmxMOo6WosTaD4WT0tBrJwjJ+bJafKXo86Lp7ZgDckbg9i9dgm4dbhamrA362SL77EZZQMsQOPxGPG4rXhcbimyYXYaWRU4m7H9ehERGimbZhnlRMYIdYGYRnHadvFae8LScVpxO30rmAtrT4hYfUGstuDSSRH3xG2kouAg4we/xxsvP0lri1iYVUStseGyG3FaTbgcFq8l1GYBtftlIZ8jBWwiLz6wKI+QSAVcpDi8VpRL/Arx5V3kv70Ii9SmA2eL7weAyI7vObTp2L8tji8Hd2futBG0NFZIi87m0GLDKPnova1dLsTrET8khLXqspwp4geZohOHHeztrGFx3G3D4zBJkRa0z/oTevdGmDnfd+ds59or48rf9gPuyq/jy7yEZ/sStj+mZN93rB3gRMAoATmHD26ie0uGKrY3kLprFU/99efSpV6s6fbMH24ma/MiKpLDyd88XUY0qc+IoqlgE0ETBvJWp8dpLCuTS9MYtM3U1VSQmnqQfv36kZubLzMhYka2/bL2WXDy17QvDJey3T5VuiTbW2wCZmcTAbf2gGvSamjUNKJWq2lq0KGt17E+fjViPbjhvbpSlrGRTcvH8t4LP+GZ+1SETutOxeFwLKc2oS9OorlwFZr8SNQFkTTmx1Oft5ZVIV+xb1Okt3vN7J3cLgvn6140aSoxacowaU9g1JZ5G1/R8IrG1m6gInUrK+dNpsLndWpsbsCqq8GmUWPTNMj3YlODVYdFXS3fg0MsHySgZsWmq8KhrcCsq5OCU4MUt7DkWijO2Mz0L3ryUdfnaKwuwG2qxq6vwNh0Cn29yI8CBBF42+GFk4CdonQvdn0WlQN17Qlw6HE5TdTXlUlrEXezFzZuC7bmeuy604LTRJu49GCpw2GoxqKpo7Wh3ntPoTdrI9uSltKvx3MEzhhGQ1kmWBqwmeqw2TQ4BLCFOWZtwaYux6YpAWsDOETEHHEPPTibcWiFPqpwaGqkuFvqwagBu84rxnpM9aW0NpTiMjd68y2nxDj8gFOahvOkfsCdRzn+U9+FBtrD7GzbSh7aAU40Zj47TqRmu8E3HiIsER3bkwIZM/A1tifOoftLf+BXt6q451oVw999nKx18zm5J4QTexahzoylIn0V60MDePL+35C2Ywf2Viv6pmb0LRoOHtrLo48+yqFDKTIgsrynMkYiurCUcRyZm9P/RPZEm6t4SipwU6w0pSuyfSqsNiff05IAACAASURBVI1GR0O9mrq6BmrrG6hraKCusY6GhgYa63Q01eqICYmU3a693nqB4ylrZTSTysyVfN2/E3++S0WPTj/j+IEwtEUbaCpMoi53BS0nN1KemcDYz16T3X84xPw2pQtOtMNusR6PtHw1J7PYmRDEikVfsmT6YJYvns621bFgacVUcZzd4dMIGd+fA1s3gdvOioVfET1zCOuXziJ65hhWzh9GcsIs9McPEDN3DKEBX7BlVYgXNC4DwVMGs2BcH+JDZhMfNo+g6UNZNucLtHVFcixLU3KAgOHv0uOVx7Boj4PpOAWpCUQsGEXQ9OFEzJvE9pVR3rEss9FrJcrnQXl2fBac28WxnHSCZo1h8exRrF4dydzZX7N88ViSN4WBvQE8zegr81kbPofQmaNZMnUk4bPHUVNwCMy14GkiP20tYQvGsXD6WMLmz2BjfCSYGsFazfbVCxj0USfC5gyhpSKVpKiZLJk9lmGffUhleT7FeanEB89h+dzxzB7zIWuWTaQyMxnMzWCqJndvAkGThxA8eTirgqaxLTaQiJljCJsxWsJQU5xCYtA4EhaPYVnAUFaHzaCl/hg4vJ6uwpnF2/tx+tnzb52pAT/gztSHf+8714DSMJ09VY620UQsnyNE9j65sVrNXucHjPKXfvj8kSwJ6EtBcjj1x9dSU7iKeePe5mfXqfjlNSoWDutG9aFoalLCUWfGoSvazrYVC7j3thtYtyIWbC7pjq9urGVN0iruuOMOdu7cLd30xfw4xYJTJnq3GQ4+vZ0Nboq1poyvCZgJaW+xCbipGzVeuNXWU1OnSC21tbXUVzfRUNVE7LIofnTdNbzT+XHKM7dSlb2ByqOJHN8fxcyhb3Df7SpeeeQO8neF4m44jK54By0n9zHkoxd4+8VHERaatKZAzqtr6x12CivNQMraCKYP6UbfLn+Qnzd7VG9G9OrOwglfQWsje0O/YtjrD7J05kTZxRjydW9mDujCx88/xMju/ySg79MsHvYvpvXvwov3/4jZw7szeXAPYpfNB0sT4vr5w7vx0atP0PudF5g+4gMmDu3GpC97g7EcbckeZgzvygddHsauyaMybzVThr3IwHcf5atPX2H+mP4sGj2YdUGLQa/3wvksgBMOHcdy05g9vg+jB73JU//4I2O+6EXAsLeYNugVclOSwFZH5JyRTBvcld6vPMSCMT2ZMqQr4/p1wVJ1mOrcLYwZ8Ap9332S7i89xrQvPmVY73cIDPgC3NXsW7+Qsf3+RXjAp2yOnsDMUd156/kH2RwfIkEk5mMO/+gNenS6n6hZ/WS5Fo8Zgv54Lo15e5g/5gNGf/ISbzx+L7NHvE/AkPeYP6oXA978B1gqCf7qY0a89Vf6vXAvYZM+Yc7oD5k2uo+0bD0eg3esU1bgd/6l/d7c0A+4701VXakZVRB29lQ5+k3AnT4jNONsbWDRlCGsDZ9AeVYcreXrqchaxqnsMOry49gSMY4/3qLiz7eq2BP2FRUHlqIrSMTdcIT960K5939uYtyQIRi1hjbALY8O55ZbbiEsNEL2gIn7KFFIlNThEG7/XhE+FXJFAJvbG27LZJXOGMLlX7r9K96RLQbpRCI8JRXLTcCtsaHptAVXW0+tlNOAU1c1sWxBELdfo+Kx+35GefYONMV7MJbtoyIjkeMHYkgI/ILf/VDFX36iInb+lxTsWUvA8AHcda2KNcuXyXEpu69r0uEUzg4+I0CuSG5gc9hMpg98lTXz+2M/uQUclexJCCNr9w4JuC3zBhLwydMkLpuH6E6bPuhNRvV4iimf94SWclYG9GLuwOfo+fz96Ar3U35wFdMGvs3ULz+D1nrmD36NqR89zdSB3TFV5uGuzyF8+ud80edNWQ/64l3MHvYmH3Z5EKcmi7igfkwa/CRj+j5B2tr5HF0XQfSksXzV4z1s5TXg8C3XIOKECvERW3hoHstOZtboHrzy1D0c2JeI01JO5qa5fPXRI8yZ8AlmdR7H9scSNPY9tkd8ja5gM7EzBzCxb2f2xk4lZvZnjO7zT2n51hTsw6MtY9xnPXj/5UcoTEng0PqFfNW7M8O7P8rskS/zwYu/YeG4AXLcztNykrStscwe/gknDyRiOrGJeSNfZ3zPbpTu3syRdUHMHvY6A1/7C1kbgsBcwq6IKcz6/E3G9+yMuXgf03o/z5zeT7Br8ac0Z60ketYAJo14j8AF43FjwGz3Rpq5UluGb6NcfsB9G1r0f8Z/oAEFVGdLleZKfLziS+1bKscjnBLMuI2N5B7aQuDkIVRnb6Y2ZzX1ebFUZYSgKYri5OFFVGeFoylIYlfkeP513w3cd72KvZEjqElfjrHyIFviF/PHX/yIRx74A2VFxegam9A364hfuUIuGfPG62/RrNPL9diER6AQ4QovACHDbNnccj03uy+1WpzeaCRGMVnbRIvBKEW6/kvvSL10ItE2t6LV6mlSN6Nu1NHYoKWh/rQVV19TS31ttZSG6nrUVfXMmDCZ64Rn6M0qClM3Un9sN5WZ69EU70JduJ3m4j3siJvBK3+/h59fr+LnN6jkVIn7f3Y3jadO4LKI7lzx8rq8S+NHckHQ2YimKJVJ/V5mwZBXmdzrKQI+f41NEXNwN2vBoGbbgs+Z0/cp1ofPB0M9C0d9zJQBbxE2N0A27JuCRhLQ51lG9ewCDg1NRzcysdfLfPLac2CoYvm495nT61mipw0BRwOoc4mYOpCAoT2JmDESw/FdzB36Jp+89CCepizCZ37E5CHPMG3oi8wf8x6LRvVlxsDefNm9B9ujV/gAJx6P9oBzyikIx7MPsnD0B/R49tcYGo6BqYLawzEsGPoSEwe/hbY8jbS1C5k9+BWWjn2fgM+6MP2zF/i619NsWDKS8Mm9+LLns8wc2QOMFWCuAUstWKrBdootkROZPegNZg3qwvTPOzO+dydQH4PWWmguZs3SCUwf0E1CK+DzTiz84jUGvvIPjm9fzcG46QQM7MynL/8vtOSA9TiZSQuY3OufjP+wE+X7VzB3wMss7PssC/t3YsIHf2fm0LcY3u91vh4/AActmJ2t0t3KV6H+5Cwa8APuLErxH/oONSAa13OJb76V4m7tFl53WHDqK8BaRWt5ModWzyVh8SBOHV5O1ZFI6o5GUZcZTl1mCA05YWgLI9AWRNOQE0NTzkpqDy+n3ws/54FbVGyP+ALtif0c3ZfE43+6lx9co+JYTiZ6jZamRg2rVyZx909/we233UllZaV0lbe7W7F7mnG4tThcesTcJwE2h8UlxWZ2YjHaMRqtGPRmWgxeaW41ojO0otUbaGoRgGtFo21F22SR0izSxlaMLVaqK2uoKDtF9akytI01lBbmUF1WSl3ZCb4c+Cl33XiNXPR01thBqEsPUJGzjiPbQ9i8fBKboiYSPKU3g3o8zhv/+DV/uOMGfnbDtXLV8sO7tkmXd6tFjOG4sLtsco6brG2PAIQNjA2o8w+yJXgqi0d8wIyBbzBnVG8mjxoJZh2bFwxiZp+nWbFgonSUCJk4iEHduxATGYVFp2X1rBHM6NeFgd1fl/eqOpjE9N4v80mXJ6DpOCFD32JWz2fZsHAs6E9CTSZhEwcwqW93Fo3qj+1UMnMGv8WAlx+DhgJiFwxldP8X+PDVh9iwfDbrli9iZfB81oSHoj5Z7uW0eECk/79vQpuYquAyUpJ1kLmfv8e4rs+CuhxsGsp3RTOj30uM6/MaObtXMWtYN6YOeIVhbz9N9PRBhE34iIl9nmVP1HTCJ33KyA87EztnFLSUgb4C08lMLOWZoC8hOXERYz98jv4vPcCMQa8yd/jb7IqeCaYyCvfFMHtkNz7u/AfmDn+LtYsHMXvwy8z6/HWKd0WRkTSLxV+8yoi3/wK6I6DL5GD0ZJZ++T5j3+2Es+QQo7s+xdQPX2DhwHc4GL+YyNljCF08iQ0bomWVienx3pX5Tv8QPNvPxPbHvsNv9mVxKz/gLotquIozcS64ieOyGQab7HoSe2JyrQGb5hjJSQuJnPwRh1dPouFIGAXbAqg+HET90VCfhNCYFUpTTqicDybc5rUFsegLV1F/NJwFI57jxT+rWPh1L3YmLuVf/7ifO29UER8eRFVpEerqWvKzCnj2yX9yjeomVsTGy/ycATh3M3aHVQLO6YOc1eTA3Go9A3DNehNCdC1GH9j0aDWtaJqMNDWaaNHYJNxqTtVLBxcBtobKclrU1Vj1dZibq2iqOkZW8jbefeUpbrtWxR3XqvjHAz9hxpgejPm0M6P6Pc/UEa8RNf8ztq2YSFFyFNrSXWyJms87z/1NLpI6f9JoHK1qafnKwnT853aQtnUtB5NisJ8qgMYS0hKDmDmiJx+8/QbFR1NInDWICR88QeKyWRJgIVNGMvTDrsTGrMRusrEzYi5zBr7LwA/eAZOelrx9EpQ9X3oMaCZx2gBmfvI8cQHDoKmEA3GLmDO8J1++9ybrAmdCQzYBA9+gzwuPgb6Gw1siGPzxi0TMH0fjyUypgx0bE4gNXYbNIKY1+B6SMwBnxe02UJp5kMhxg5n0zksUb99AS/5hVk4dytxB7zBj+Mfk7F7N/NEfMWvou6SsDuXkwY3MGPIGE/r8k9gZwziVvJEJ/d9m8fjPaSlNJ3fXGib270H/157iVOomDqwOYnTPFwkc25vqI5tY+nV/Zg5/j8qMDRTsi2Fc3xcY9O7fsVcdJHtrsPzckT2eIHXNLE4eiiRw9FssHd2V8j3LaM5eQ/SUvgQMeJ0pfV4DbQmBo/oy57MPyVq3HGNZnhzbS4wPJTs/Fauw4ZxmWfz2ALvQdscqv9L3/YC70mv4ci/fBQCnZN8bocTF3u2rWDxtMKuDRlOyN5SK5FAJOLGQaaMMQ+VN1ZmhCGnKCqMpJ5ymvCiaCqNpyI7AfDKR5uJY0jdNY+HX7zOsZ2d+d6eKn96kYtSAD9BVFVN3sojjeXl81P1jrlfdwoudX5XjcKJb0ts9KbooLTK0lZgfJxxQxDQCAbj2Fpy+xYIiLc1mmrUmmptaaW4yoVMbqKtSU3myirrKWvRqNQ1VZejqylBXFFFVcoQ9GyOIXDKO8cO68eWnrzLgg6cZ9PFzLJzcm9A5n7E1fgJFaeEYKrZhqd0JzQewN+6SEU50pevQHt9K4d4VTBnyPr//8Q00nCjEYzEhlt75xsvjYt/GJEb2fp/JQ/oROWMcM4d9RLfnH+KTD7tL4MbPGym7LUNmj5NejyN7vc2IXu8RuDBQflzw10OZ3Pdter7eRe5Xp++Q3XS9X3se9LUsH9+fgF4vM+rDl1k4biCTBvag72vP0PfVF8Gmp6U0hfGfvcl7nf+Ota4UU90x4kKmMrz/O8yaNJzJ44by+kvPMbBPLzlnUfa0KpOynWJiuRhXtOBxNlOcuY8Fgz9m9JudmT34U4K/HsmMAe/w7j9+S8LSANz6cukpOvLjLnw94CNEHsf0f5XJg95iXN+ucuxxVVAAQ957ldlfDiBgRF+6dXqY0X3eRleawZ6EZQzs3ll6QrrUxzm8OZqAkZ+weOJAqnN3EDpzCLNH95QelN2e/z1Th3aTjjJfffoyjce2siF4FJPee5Kgz15jwvtPMvStvzHh09cY+9lb4GokfXcCQ3q8zNyRnzJnzCB6dXuFlzo/xcHDB9tmGwq+Xwhq7c9/o86v8AN+wF3hFXzZF+8CgLO6T8eYnDppDCM+e48dq4OoylxPY9Zq6jOi0eVEc3LvfKpTRYT8pVIU2EnQZYfRmBtOY34EtdmhEm7VmUuxVW9CV7KBvQnTCRjRlZ9er+KhX96EpfYYds0pdJWlTBw1lh9efys3qm6kobYBl8Nxhoj140T8SqfFhsMsQn3ZsBitmFvNcgUAESRZxJEU0qL1htvSN7bgFR2a2joZ4qq5vpK9W1YTuSSAr4b35POPuzBu0FvMn/wxK0O+YM+aGSRvnkvJkRgstbvRl2+l5dQmWk5tQFOcgLZkNcbKdVhqNmCqSEJfGofmWCxNBatoLd1Kfd5GFozvS5+uL2LXNXq9D8XD0aZ/sZirmPRsp/DwIZbODmD66CHMHPMZezeuoOxUCS5nK/kH1/DFxy+xb9NKjJpqkqIC5QoE2zZvw2G0kLI+jjG9urFgygQxDwFtUYYEWdD0idBcz9yhHzGp1+ssnTSSY4d2Mmv05yyZMhZ9WZmcqiCAFhs0iQnDPgW9Wnpeijlwh3YmMeLzT5gwagiJcZGIhW7lS3jKS3GDAjgxodrhBVzglwMY2KUTx/bvJHzWFOaM6CWnhbQ2iug0enSVOaxeNo/BH/QgeuEcDNU5rIuezZQR/Ti8bZ0cZ0zbuobZ44YyflAvdiZE4WgS43EaKnPTmDS0H5tiQrwTwptriVowhcnD+5K8JQ5N2VGWzR7DtC97sWtNCKb6XNYun8XkER9SlrMNnFWkx8widGg3kmYOIWnxWCYN68GAXl3wuOuxmqs4lX2Q5fOmSn0smjGR3OwMGYS71e5sM17bA+xC25d9e/AtZ9APuG9Zof6Pu0QNtDWw7Rtb37bvo0TYo159+vDMk38jP2MXJzK2Up21gYqUaGnBVacspSYtmKqURdSnB0tpDzjRVSkAJ8bkhDTlRaApCKepUEz0jqXp2EqaChNRH9soXb5j548kZWMYTSczWDZ7Cv9z/TX89LZb2btlMx4xX8xmw22xYBVu6m43mroacNrlOXOzFk1DLcYWLQadmoaaSrmuWqu2AYNGOIqcoqW2kor8XA5uXceigHHSOhnY82UmffkBScunUHh4FRV5a2kqFQDbhKFyE+aqLRhPrcdwci36E2swlK7GcGKVT+IxlsbTWhqLoTiGluPR3uVzCqJoyY9CmxeDJnc1jbkb2Rw5m68++0hOmHY2q0+HjLKawGIEmwXExG5lcrcIw+U0ypBccgxURPVw6E5H5RBxJ+WEaw84RTwtAZdWEB6aQuTEZrEvooQ4mDG0H+N7v0v47Om49WIys4hhafX2PosoIU6DN3KI3Q42X2QPmwmE2FuluC06GR1k37ZNZBxIJWP/YW968CDp+/eSvHsLBZkHvWNwIz7j/Wf+DiYDGFvkOBx2AfgWGTkFt8ibiJ0pQCk8MsW+KKOY2C70ICaWe3XQlopj5xRrh/eI8vjKJD7XrpX601QXynl3cVMGwYlDUJXBysXjGdbnLfr3eQMHGl8UF3FvMUdRRDURDlbeLlkxdVGKL/TYhcCmnL/Eb+f3/nI/4L73Vfg9L8B5ACe+lLklpfztmWe5/qYbpUfjmtggStI3UXJoJYU7llCVEoYCuJq0IOoOL5HyDUsuOwx1tq+7MiccTZ4AnVeEZdeYF0Vjbhy2ip2YynaRvTOEkICBvPfSw/zhJzdKT8QBH75J46kimipOYFLX4xGTnzUNtKrrwGNH21CJQVOL3aTFYzNIC6ex6piMCKKtLSAudDbTxwxg4ojeRMybwJFdKzl+ZAP66jQ8LTmY65Mx1+3D3rBHTnMwVa3HWiUssnWYT62RXavG0lUIMZUIifdK6QosJSswF8diOh6DsSga07EojPkRtOaKgMuRNOeskJDTFm7jyMZQlgUMB7fW2/gi4i2KQMA+sDlEIGRFhNeoGNMSwZK9YbNOh7oSkUR80UQE3KSICCMCbr5IIxKAtraxsoUTxzKg+5ssmz/P++AKq0vEfBSAEdIWtsq3L6wz0QUprpM/IozYTU1y/G/D6mhpYU/88msmfvkVE0eNZvzI4UweO5KJYwazImQuSyeP5Z1OT+DUC7gIMInQWzoZikzGzBTTI864vy9qi2IZyvmBvvBiMm/ifHsR+Won4rOE+PLrvbb9+wU4TdhadcSHLWDm8A+YPqgrUwa/y+QRPXn84XvJzz9Eq7UBi1NEXPGF9hJdrzKsmO83ifCnEQa3MkviIrsqv+etxSVn3w+4S1aZ/w3fqgYuALjEzVt59Kln+MndP+Wm61Tc9/MfsjVuAacOJ1J9JI6K1DCqUpdSnRaMBFx6IPWHA1EfWSJFLA0jRI7FZYWhzQ6XIlb31uQtQ5O3FE1BCJoCEa8xEnv5Rhnqylq5HWftfmnV5e+LImh6Pzo9/BN+82MV9//qh7z5whOMG9afuLBAyvKzaKw8IaN1nCzJ5EjqThJilhI8bwKzpnzKmhVT2Jo4h2PpCZhq0zDXHcZYlYK+fB/m6n3Y6vZjrduFsXoLLvV2rNVJuBvWYqtK9IEtCUvpGkwlq6VYilfjlVXYiuPbxFy0AkthLGKtO0t+DObcaEw5URizl2PIjpGQ0+WtojI9igNJ01gd/AXupiJv95pRI+NSilUAxIrmYj6fw+V18JFBjkX8/naR8eUzIOpOtLBtcPNtK/EdZYxHATqPtDbElIS40KUM6NmDsOBQ6WUqjkkRfBUiY18KN39fkBKxiIHvnICGiMvonTIi5oCJOJSKk4k47MYlopvYxTUOGsvzmTVmGD1e6ozT6oO4yxsSzI4VG06cIm6ANya0iAvtDfIvFnj13V+sgCDA7gW8d0UEecwXAtN73n16cQBxXLxXOS9S+Rnic9yYjUa5HJOY1qBrqmZF1EwG93+Zbm/8jc8HdGX/riQ8Tj0Wq/B0FfE6vXE7xcR1qRtFLz7AKfpTvpOKpXauVLnuakn9gLtaavpyLed5AKdkWYw3rF2/Tjo63HGjiqcfvJfNy+dKyJWlRnMqLYzKwyEScsKC8wJOQC6Qpgwv4M5wOhGgywlFmxMiAafND8Er4dhPJclgxcYSEbh4A9byzdC4l9ZTm7HW7uPg+oWM6v8yD917o3RKuesGFff/4sfMnDyGkMAZdOv6TwYPfJeopZPJOrQSjFkYandgV+/F1bRfWmeuxr1Ya3bSfGID1soteBp34qzfiqFsNdbK1WiKIvDUr8F4IgbTiVUSblaRHx/YzMcTsBQJWYmtKA7rsRXetCAWS94KzLmxWHOjMWdHSTFlRWLMjsSQE4mxIEZ2W4oVBw6uHk/svCGUpqwDEXfSI7wShaXgkdCR3PIZUG2R/H08EQ2ofAkPV8WMkJ6MPlNCbiutvBdwoktNdN2K7j3RMBvNdu9bRXebsEZkkBovCJSYx22gkQ26U8aUVMxBp80bsqptHFFgzeJdTUJYPqIrEzGpXXS3Ki8RSNptRiz2Y/GtdyfvpRhhwvgSosRdlvtunG5FfOeV6zqmyvuUtMN5ZXUJEYTb+xKewaIcWlwurZwGY7O14LC1yrl8nja4+iDqB5xSkxeV+gF3UWryX/Rf08D5ACfOnfFys2ldIh9178qffvdLAr4aRObeSGryEyhPj6IyLVRCrj5tCQ3pQajTF7dZcu0BJ6w4sXxMc174GSLGq4zHYmk9Ho+xeKW3K/DEatk1aClbixARwBjtQWkFTR7wEj+/0et9qVKpuPkGFc8+cz9ZR9aAMx9P6wHcTTuh0ScN2/HUb8Nds0WKq3ozzpqN2Ks3SHFUJmErT8RWnoC9PAFb2SqsJxOwlK7GWiKstlUSauZj8QgxFcZKuAmrzZofJ+HWBracCEzZ4ZiyQ30SQmv2UvRZwTRnLZGizVpG5rqpJC4axLboKV5rztwkTRCX8O7xgN4kGmCwO11yUrtiMCkWgjwp6kk50L4+2w56l0X1QlHx6/deKFwlnHi8oBOp709ZDkes+eYVrwXpXTNOAEvkqx24REbk8+ILBKqYUNLEkbn0/nOLZXbEXXz3VPjcbkyrPa//G9sCoOJzRRm9/a+yb1YulCoXS3V7gwkoVmN7uMpiCYtWsXx9qaL+C6XtNHFVbPoBd1VU82VcyPYN4vm2fY2l8GLUqptYvyaJZ594mLdffojtCTNkMOGi/SGUp4RSkxpCG+RkV+XStikEytSB05CLpDnPK/qCaAk4U9EKjMVxcnzLcsILGVvZaoRQvxlLSTyeynWgSab/m8/I5XjEJPHbb1XR/d1n0TamYdPvxqZeD+qt0OiT+s1QtwlqNkjxVK/HVbMeZ9U6KQJw9lOJbaLcU0DOWrpK3tdyPA7RFSngJkRYZKJL0pgXKy03b5dkOMacUIxZyzBlh2DMCcGYG0xr9hL0WUG0ZAb6ZAmt+VGU7VtE8qophE7tLwMDY/YFY/Y9NiaLrW1du44NaNuT1b7uxEGxfwbgxLRkMZimAM6bioVOzyaioRdy+pyAkhgYEzBQxBuN5Rt5kFal7/bKSV/+OoLhvwGwS/lMJXsilXnzeM7o0mwPN9md6jOKO5ajY72ca7/9/a6GbT/groZavpzL2L5hPN92W2OpFMZDWUkeX4/uy49vVTFxaFfKMxMpS15OeXI4Namh1KctRZ2+DPURL+DEatbCo1JxNtHkCisuUnbZCevNUBjTBjjz8TgJFAEW24kEHCdXSxHHxTF3RRI0HiB2zjh+cr2Ke+74AdeqVDzX6Y8UH1uPsWkr1oZ1ZwJOwK12YxvcBODcVeukOCuScJSvkaJArj3gRB4EWMX9BYDbA05ArjU/mtbcKNkNqc8OQ5+9jNbsZRJuhtxghOhzA2nJWUxz1iKfBHqt3LQQdFkrKd0bxeG1y/j6sw8Qk8LdZoNv7Mqrc2E9eMGl1IFvv2O9tTt9GnLSU+QbgPN5kCieJG1WjAK4jumZcBPN+FleMmxXB8D5LusIhv/v/fa5V/KiGJ/nS5VrFZieC2gdj7e/39Ww7Qfc1VDLl3MZOzaO59qXgBMnT7/EgpxivtO2DdHc/8ubeOBn17AxfCJlySsoT15OdWqknATecGQZAm4CbB0B5+2q9EJOWHDtISdAooBOAEaI2BcwFCm1+zi2Zx13XaOSHp4CcPfcfQ1rE6dj0W7Hpd18JuBqNtAeagJuHcEmIHcpgBN5kXDOi8KQJ1bwFh6TAnBeyLXkhtKSF0Jzfgi6vKVoc4Jpyl6CNkvIMsr3zKf6YDAlO4KoTV3NiYOJ5O1dw/uvPstt16no/cF7NNY3yO5Jm1UQrsPrnPWlXNe+if2mBXfpgFNAqXyucp/TGDfokgAAIABJREFUqez6O8dpBQyXS3o616e7Hc8HNuWckn8/4Npr8JvbfsB9Uyf+I9+lBs7VQJ7r+Bl588gVnsWvem1tKe+98gy/uV3FoO6dOLY7lpq0VTI0lwjhJeAmRIBOgZ3YF12VQhRLTkBO6aoU43EK5BRLTrHmnGWJ2Mq2cTJ5K3eoVHIRUjEOJyRw/mdoqtfi0GzEUiHG1LzdjmcDWnuYia7I1uMrMBTFStEfi0FIS6E3TyKPAshK96oCZyXvAnQyv0UrJOy0mWFUJi/k1KFFVB4OpjEnkpqMEIr3LUCXF0d1ajiZa2aQmTSPrSETWPJVX/7553u4+2YVP7pZxcN//i2DPv8Us9ns66IUA0fnsNo6Hj+jnsSOQpyOF3bcV6672PQbN/peH1DAdbHpxWpJue57rZx/I/N+wP0bSvO/5VvUQMf27UL7Z7u1jFXpwtLcRFzwPP78s9t49r67SVg4Si6JU3ZwISV751GXISy5UBozw6UIwInpA2eDnLDk2ltzYo6ZmGtmO7ESR9kqvIDbQsmBDTLO4503qPjp7ddxxy0qXuj0M3IPLwbDViwVCW2AO5t1pnRDirE+Ma9NjP0pkLsYwAnISdDlLqc5dznCWm3OjaE5O9rbTZu5AkPxFrkA6smU5WRtXSyXnUlJms+O5dNYHjCU2DljiJw5hsDJIxjxaQ/effN5Zk4fQ6O60jcO5vWqFI2uH3BnewC/vWMXCzblOgVcF5t+ezn9fnySH3Dfj3q6cnN5IaB1PN9BE4oHeItWRKBwg8VMSUYKzz3wG+6/Q8WSr96VHou1GWHUZ0XKlQZEKkSdFUFT1jLflIHQNo/KlvwI9AVRUiTkiqIxF0djKYnBdjIOR1k8zlPCy3EL25fPk5H9BeC6vvQMP7hOxc9+rCJtz0xc2o1YKld28IpcifXkabGciEeIqXQFxhLhwem14BS4XciCE+OImlxvtBIRsURIQ3oETUei0OevpSlvB4eSwome9xURs0axbcUijh3YQEnqdiqzU5AOJa3NIBaO9VlZZocJg70Vi1s403u8riHCePMDrsPT9+3vKuC62PRiwaZc9+3n+PL+RD/gLu/6ufJz1xFgF9pvrxFxbYeX22IDm5W96xL57W0qucL1+F5/o+zgUkr3L6HuaDT1mTFSGrKjUGcLwIVIac4TkAulJT8MfWGEFEPhcm9kkOORGEsjsJxcju3UCpyViVhObWHuFx9zp0olPSkXTB/LX35/Bz+8TsXSuZ+gObnSa8FVrMRevhLbqXisZXFnyPkAJ7smO3ZR5nrn8ImJ6sJy0+REo8mJRZsbL0WTI5xgNpC9LoBpn77I0A9eIWr+TIpS91NbmI32ZBGYmkFAzfdyGG0ybqYY37E4TnsmWvFg9Xjd6ZUG96IsOOWDz0iVJvZCFaxcdzHpGTe4InYUPV9sKgp9MZpSrrkilHQJhfAD7hKU5b/0v6CBC7V3Hc9fIAsior+w5MqKivjL7+7h3ed/x49VKro9fgf74yZQlxEnQ1ZVpETRkBVLY1YI6pwlNOUGnzHpW1e4DF1BGC2FUeiPLae1JBxDaSjNpcuwVq3AXLUaw8n19Hvz7xJwP75JxcaVIbzz6uP88FoV/Xr8A5c6GWP5GmwVIgRYHJbyFZjL4jCdXCEnccuJ3KUrTltvxTEYiqLl/RTLTVhooitVhBYT+VDnLEVfFIm+KFyOJRoKk6hKjqYpaxWZa2cxf2gXHvupii5/up4Pnv89i6eMBpOI7mEHEc1DhNCSs6d9C4QqLZ9IfT8Y2h9qU3fHevi29i+pefbOzbsoyH5b+bvcP6etgvwbZ9OAH3Bn04r/2HengUttQC6QM/HL1+3wUFVVxZ/+8AuObA8nbt4A7r9dxd/uVpG0aCBVadHUpMdIq64mXVh1gTRmBUt4aPNDESLg5gWcFzgtxWG0lCyloWAh9YVLaC5bgbNhDx/+6y/colLxi9tVVB1PI2jWKG69RsXTf7mHsqNJGMvXerspK1ZiKY+/ZMDVHgmWy/0I0AkPUMVJRjjOnDoYSNqq6Xzd81me/LmK+25W0f3xuzgUP4XiPcuYMexdEsKXeMGlUKu9vpVj7dP257+LbT/gLn5c82z1cYHvw9V+2g+4q/0J+P8u/9m+tOc7dhH5FWGQWlpaePD+X5OzdznVmXGkrQ3gX3+5lt/coKLPS7/i+J5FNObEUHMklKr0pVQdWSJXARcLpAprSZsfLkWXHy29GAXgtEWBEnBNxcvQlMTSULCGh39+PXepVPz+J9dReewA+embeOBXN/PrO1RU5myVKwB4HU0SMJetxHQyHuOJFTLyv4j+L8bd5NhbO+tNWI2K1GcG+5xPVlJzOIz0xKlsWDyYUT0e5alfqPiFSsVjd6sY/cHfyVg3C2PxJrR5a2jIXsX0YW+zKiwIbMJqa+cg0h5oHbfPp/v/xjk/4PyAu4jv9L97iR9w/67m/O/7djRwqY3mRdxVAM5ms/HQn+7l8NYlnEgJpepIJBWHw5k99J90+auKtx//AeFTupG8ehwFO2e3gU44bHidNiLR5i2X7vQtBXE0F0XSXBxCY2Egnqb1aEtXcWDNTB646xruuU7FH+5WUZy5GVPj/7F3FvBVHNsf38p7r/Iqr++1/VehpcXdKVCgBhVaWqBQKE4UgksNKMWKxx0CCdZCoUixYiHubkBwiHtyk1z7/T9n9k6yucRvAknuLp/DrM6O3J1vzpkzMxEYPbw7Gzawff1iFFw5UjZUoOjKXja3JFvaJtEL+YlezGuyasB54NLZLYg8uha71n2LuV92wLutBPR4TsDw9v/C/K964ID1bKSE7EZ2zO8oSDiEwsQ/kR//BzKif8Myi4/h6bgJrF+SJpbUh1llx3Wtj4a4v1YJ0yW2Id7XkuKoxfdgzLfIgDPm2m8Kea9rY1NDmpmJUjceedRnQ3HMazmSvK2RGumBG0Gkne1A3OkNcFr2GWZ+/BKmj3gZVl+9je2rxiLm1EYRaFG7cTvAFbcD3JEfexBZkfuYdldybTebCDk/eS8yEw7giNtyvCAITDq+/DByb/mgIDUAqxdPwn8EAcM6vo7cxL+AlJMovPQ7m8uS3k+STiuMR25jnpzkOUmzlNB4NhpnR+PvIo/8BM9VYzF1yKv4rONTGNv3eZh/3BZ2i0fi3I4lyIreC8WVg0gP284kNXw7SDKjd7LwRoAT5n/bHzsdNoorX7MlXKiw9TZ9yNW1PuT7DdPADC0/veqUDyuWgAy4iuUhH93vEqjrB15D+ghwfPvq03ex2242rvhtZSt5Xw+yQ2a0BzKitpeBzm//Muy3ng6rr9rh0+7/wNf9n8XudVNwy28bsiJ+R+mlU8iOpjklT6H4+u/ITNiJ3Ev7kJ10FDs3LGDrxD0pCGj3ooDCO97Q5Ibi+L7NaPefJ/GiIMD+x0nIT/qTaVbZMftAkhG5C3dDtjOtMTfGk03uTIO0aQ27A5sn4PuJ7THjw2exdHx77Pz5W/jtWo2EUw5IC/ECbh1H8aX9LA9kWk0Pd2XCViyPcMVd6qcLdcbtYAcsnT6IrYlWQYPjhcNDGXAPFlB1/f3r38/rUQ4rLQEZcJUWi3zyvpWA/gdb03ENCdMH3NZlo3Ej2BbXg2yYpEc5sdW8Gegid6Do0h/IT9iPZG9nXNi1DAvGdMVb/xTQ9VkBX3R/CutnfYH4Uy7ITdiP7CTS3EiL24eC5L+xftFUNsj734KADi8JUGYEQJnhh1jffejxf8/jeUFAm8cF3Arai4KEo9DePIesqP3IizuAokuH2NpzuTG74LlmDBZ/3QYrpnXGYbvJiDq6DClBdkxoHJ722iGQk0lmpDtbXYAGg9NyN5nRZE51A/UbpkY6MrlBMA+imVucsNLyPbaoJuuDo3KtbJMBJwOust9FCzknA66FVGSzzUZNQNO/XkNGKwJuKFbMHo5boY5IDtiKG0FbkRppr1vg1JVpQdmxu3Ar0BWKy39Cde0EFIl/wn/fzxje4SH8nyDg7X8KaPekgHnj+iHspC3S4g/hVvRBFNzww5KZo9kQAfKi7N76MaizglB89wKQEYYPO72FN//xEHMCmfNlT8Qcd8KOVdPhtXY6bBZ/ge8n9YTFZ63w/aROOL3dEjS4nGZLKU7axcbdZUU4IY08O0Pt2Ri94kueuOm3GTQuj5b54R6VBDIaOkBDHUiSL64HQY40u3VzP8MeF2txQVIOMv3y4+d5qF/e8nHTBqB+fcrHFUpABlyF4pAP7nsJ1LUBrSGBxTQOjhwGtVpMGP0Jlk4fjtuBHrjmZ4M7IVuRGmaNu6FbxGEBBAearivctYKGxJbFyTgO26Wfoc8LIuheeUTACw8L+M5iLCL9/sS1BB/Mmj4Wzzws4HFBwMghbaFM84c6zRfICsfaWd+g1aMC3viHwMbh9XxOQMcnBbz/9sPYPHc4ki/YgRYxJe2MViqgacBICHBsP34nCmK2Iy/SDTkRrmVCEylnhTkzocmSM4IdkR5GpkobpIVa44bvejb/ZFqQJzYtmAiXTWvEBpo8KUsrmSyZg42Hda0P+f4HC8AavgdjvywDzth/AQ86/3VtIGuR3oICcVXn997phaXTPsVtP9J+7HE3lOC2iUlqmK1O83FAekT5yt6KyzuQE+uClAg7KK8dwtULezB/zIfo9sJjeOkfAv7ziID/PSVg5U/zMOL9AXhUEJiZ8pNBbVB46wKQEwTV9XOIO+2BN/8p4IO2T2PJ+HdxxG4RSwfSfIDbp6C68gfyYjzZnJY07RfNb0lwIy2uIM6DwY3WapPCjfZplYCcUGcm2SFObEWAjBB7ZIRuQXrIJtzx24Tr57ci3X8vtsyfCru1K8sBR44m+hsHGw/rWh/y/TLg9H9TTehYBlwTqgyjTEpdG8haFFJ2Vi6ys7PR9vUX8Z0OcLf87JEaYo2UkPVIDd2EtFBbpvmQeU86i8kV77XQ3NzLzuWzsWm/Axn+OOLyIyzGDGTj3Z55VMB///0IHhMEPPfYw3jqIQFzp32EwtvnUHDlGPLjDyEn+ih2r7PCDd/fgOwoaJLPojD+MLQ3jkF59SDT2ghs6qv72LyW3DRJJkiaB5M0N33trTLAMcgF2yMzZAsygjfgjs9G3DxXDrhNK34Q5+ikdVUq2zjYeFjX+pDvlwFX2e+qiZyTAddEKsJok1HXBrIWBVVSokR0dDRbhJQAdyfACwQ4glo54OzZRMviDCblU3VdOr8a+QnuYJpcjBsUlzyZ52XJ9aPIjD+C03u3YPakT/HCEw8x02SXt17CUw8L8HRYjNKU8yi98RdKrhxmDiWK+JPA3UCorpxBZvg+5ETtBQ0cL4zfAVXybqiv7mFC/WuktRHYqC+Ow40DjsySXKTamwg3R2QE2SIjeBPSg9bjrvd63DlvjVRvL6bBrf1+MdQlotmWFR0HWVVhXetDvl8GXC2+yQd1iwy4B1Xy8nvFEqhrA1nLctuxYweeeFiA2cj+uOvniazwbUgJ3oq7wb8iJXgjUoJskBpsXzZFF2lyGZF8/kk35MW6oyDGFQWxjsiLc2brs+XE/gblzfO4EXoY5w65YY/Lejhu+hHPPiogzNsdyrTTKEo+gNKrB1Fy6QiUScd0cgQlSX+gOFHsaytKpAVTXaFIcENRvDsKY7ehIMYd+dEi3Mg0WUArjIeLJklx8VJumnRFZpAzk4xAR2T62yEzwAYZARuQEfAr7lz4FSnedrhzZjuclpphzrRvoSwqFktNqX6wjXFd61q+v+b6quX3YKy3yYAz1ppvKvmuayNWQ7ppRnza5s2bh38/KmD2V4Nx/bw7bly0wU2/jRUAR674qcG2DHKkyVFfHM1DSasJEGzyo11QFGuPohhHFMa5scVECxIPIP/SX8hOPo3Ma95w3/od/v2QgKxrx6HOOImiq/tATirKSwehvPSnTgh4v4kOJEnbUZTogsJ4B1HiXFjcBDgGuaht0AecVGsjuBHYSNIDHBjgMvytGeDS/Nfh9vl1ZYBbZ/Y1pnw1slyDI8DR2nlSqWv5y/fXDJ37WUY1fA/GflkGnLH/Ah50/uvaGNQivSl30zB06FA8/pCAn2Z+gasX3HH5zCbc8t+Eu4HrkBK4ASkB1kgLFAFHrvjSyZalgCuIdgJJUYwriuK2s7Xb8i/vQfblPci4fAi//jCFTbacc+Mkiu8eRdHVPSi5sgfKy79DlXQQJUn7dXDbw9aTK0p0Q2GiIwrjbUQhwOlpcGSazI9wK3MoIVMkN0cS4AhsJGn+9sjws0WmnzUy/TeAAHfj7BpcP7OZmSjnjhqCEYP6MaBp1RpoVDLgWtxKBLX4Hoz5Fhlwxlz7TSHvjQC4gIAgdOnSBYIgYOPCqbjlu5Ot6E1OJgS4tMBfkUaA87dFepA41oyNOdOZKfmacHlRLiig8WmRbiiKFk2JbNHTa7uhSTkAZJ6BxTeDmRdlQtAO5CbvZysGsAVRL+2D6tLvUCb9xqbfEt3/d6Ai4OxQWEfAcc2NAJfhZ49MXwLcFmT6/8oAd/3cGlz5eyPzopzyXncM6NqB1bJaqZQBV9ffWnO4vyl8w004DTLgmnDlGEXSDG1E9AqpuEiBQ3/8gSf+9Rie+oeAmZ+/g2SfnbgV5IiEsysY4FID1iHNbyvTgEiLEzU5e6SF0MKnzqDFRLmzB2lSJNQnRqZDcuOnRUpLru6F8vYJfPNRN7z0mIBb0QeQkSAuiaOkpXQu74E6cS+USXtRmriLiSLeg/W9EdSob68g1lns54txZwAlmOZHuiAvwplJTqhjBc2NmyZFzY3gJgIuw3czMvzWMcAlnlrGtNX0kH34ot8b6NT6FaSnpoEAR1rcPZt++d9zQw0n9J+Xj5uWCVO/PmqozpZ2WQZcS6vR5pYf/Q+wrsd6+SXAbd64iWlvpMG99C8Bsec8kBGzG8m+m3AncCNS/TeLcPNzREqAPVICbJnDCQEuPZRW+KaVvV2Z5EWSyz7BzYMJTYRcFO/FlrChOSZH9GyFZwUBQScdkBa/S6fBeUJzSQe4S7tFwCV5QgScu67PzbUMbtT3RhpibQBXbprkgLNHhi/Bej1SA9azWU+iTqzDlYueaPucgFYvPouwkNBy7U2vvO4x2elfr+m4rvUl3/9gAVhTfbaw6zLgWliFNrvsGNrg6WdYo2Uai6ONHTq93RrPPCRg9LB2iDnnikveDrjp54g7vvZIueiMVF8npAU6lGlw5FWpDzia4Z8kN5rc+D1Ac0MS5ArjaJLkP/DOW/9lEy4f2fEzCq//CUXyHqgu7yoDHGlvJQmeTKgPT+xv43CThBLtLTfMCSTZIQ7IDCaHEvsypxICXKqfHdJ87ZDm44A0HycmqTRTS4ANW6Eg8pQNzu7bzPoGn37sEXh5eemXUvmxfvmXX6ndnv7z8vGDBVhN5V+7Wm0xd8mAazFV2UwzUtMHWdN1/WxrtFAUFgE0sFlVCi/XzWw6rW+Gd8HFA5tw3dcTN322466PB+76uiHFn7Q4UYMjwHEtjsyUJBxwNNs/CcGNIEfL2+TFHUSPl59kGpzX1rnQppxm5svSJE8oE3dBFbcLJXE7URS3g0lhLM1QIg4HIA9NkrwoJyZkmiSoiWZJBwY3Gt+WHmDH+grJLMm1t3LAOSH1ogfLyx0/F7YgatTf1kj03QWPzT+AVjl4WBCwbt06/VIqP9Yv3/IrtdvTf14+lgFXu1/OfblLBtx9KWb5JVWWgKENojRiikvqAq9RQlWQDhTehfnEkRja+VUcdV2H6OPbcPnvbbhyxglJpzeyuRtpqZq0EGcm6aEuyAxzZZIV7gYSDjrS3AhwtG6bz96VDHC0asDGpeNQdO0ICpM8UZK4A6XxnlDGeqE4dgcUMR5MiqK3S8yQjsiLqCg5YfY6rc0emaRNBtowuJF2RlAjSQ9wQqqvA+5ctMPtC864edYTNy7sxVXvHYg/54bQk844d8gFI4f1w38e+ye6dGiP48eOsQVgqajU0JYJzddp8GZo/cnP318gGlzhzSsCGXDNq75aXmoNbeCkJUJxVQCcGgXZKYC2BCguxFEvT7zXuS2Wm4zD2Z2/IuGkEy6fs8FNXxu2FhsHHIUcchxwPOQmSgLcXy4L8fYzAlsWZ/W8UQxwtDo39bUpY3eiJMazDGwi3LaVOZHkhjtAX7JD7RjY2MwktORNgDUIbim+1kjxsWWSGeTK4EaAywrehds+BxH0mwvO7dqILT9MxriPe2LE4G7o26Urtju5M8cSjUaDgoICVlJSwNG+wZuh9Sc/LwPO4B9h1RHIgKu6bOQr96MEDG3gpGnkcWm0bDUBaNQoLMgU76AB4Fog/0YKpn06HP1a/RvLpr+HgN+X4ZrvVtzxpzFxjmVaHIccBxsPSZMj8yQ5mnitm4rXHxMB95P5iDLAldQDcEx7qwXgmObmbYOE42vh67WczVayaa4Z5k/8GLar5iLK9xigUgAlYn558ZD/ZKlKCZVGU6bByYDTlRH/3RhDyH8QRhLKgDOSim6y2TS0UZFmjMelA5xGo4JaqQCBDsWAKlfDQuTlY5/jBnT4r4C3/y1gzayPEHjoV2RF/4aUUA/cDXVHSpgbW0qHTJVZoa7IJjMlmStDXVGSsAtFcZ5w+H4UW0Ln2YcELJrxHgqvHmbzTJbEukMdvQOqSA8UR3uAtLcqNTidQwnveyOnEhqbR0IentS3dtPXFTd93ZnEHNsK6wWfwerLTlg+40Ps2bQSPgf3QnE3CVBlQSSbWCglhWLW+bSTSrVaBhz/jRhrKP1ejGBfBpwRVHKTzqKhDY1+5iTxsXFfGrU4/ksFQAVoFSpoixRAUT7Sk5Mwetgg/EcQ0PP1p+G8Zg4uB+1DnJ8rksO34Va4CLbCCBrsvQ2KqO3ICXZi0FLFe8Ju8Ug8+4iAJx4SMGvyIBRcO4TC+O0oiXJGaYgzigOdkR/sjPxQPo+kM255b0Cq31ZkhjogJ8KZLYdD0MwKdWdyy9uGTQxNU4tlx+zDtcD9CD7hiS3LzDFyUDtMG/UO3DYsxaWg4yi4HQvkZwKltDyQUjTFakoBjQYgqmnFdfGkZklZgzNCrU3yTeh/Li39WAZcS6/hpp4/6cdXn339/Enj0PXHEegY7FQacemYEiW0xaXQFpVAk1sMT3sXvPnfZ/APQcCEL/og0n8HogLdEe1ri1v+TsyxIzvYDTkh7qCwIHInlAn7YLP4S9DSOY//Q8Biq0+Rk3yYaX35YU4oDd0GVbgniiJ2IjvMAxlB7kgJdEJu1E7mjUmmzoxwD6SF7ERqsCfuBOzErYAdTJK9XRF6ZCNWWY1E//YvYlD3t7B8gSligy9AU5AKKHMADXmKKgAtgU0JaFTMaxRqmlCZ62waZqqVAWfkUJN+E/rfSws/lgHXwiu4yWdP+vHVZ18/g/pxcKcTGjbAhg7oIEeLf7JVrsXGL9LvIt7p8RYeEQT07vo01v38DZLCvHAnfBfSQz2REe6FrMg9DEi07I0i8SA2LRmH/zwm4MnHBaz6aRrSLv+FtOg9yArbiZxAL2T4eyH5vAuu+XjgZqAXbofswhUfdyT7uiHZ3x1XA3Yi8JADDjv9gs1LpmLJ5I/xQeeX0On5h9Dl5X9gxZxJSAw9h8KM64AmH9ribEBTKGpqoCVwCG6lgLIYKFUAKrLDqkS7JFPhRMCRt6QUctJ9/eKr87F+ecvH99dppK7lXecKbt4PyIBr3vXX/FNf1w9U/379EtC/XhXgdNpcSX5x+Wz7mkKc+msXPn6/M9547SEMH9IKaxeNxm8OCxF83B4hf9njZth+pEYfRk7SSaxbOgnPPfEwnn7iUWxdvwi3k06j6MZ5ZMT8ieTzuxF1ZBv8DznhhOd6eG5dDPuVJpg94V18M7wTBnd9Gh1fFmdaefOZf6LLa8+h79uvYd2SOfD56wBQmAWU5ulyRxqZzkuGoKYuhqq4ECWFuSgtyoe6pAhaGXBNGyz6v8sHdaz/vbTwYxlwLbyCm3z2DP3Qq8sgj5tDrrqQmfrI9ZBMfDkIDzmB1cstMW5UP3w46A0M6P4C3u31EmZP/QgumxfhwI61sJz6GZ76xyNsMPWGNUvx10En7HFegR1bv4fTL4ux5acFMB83EmbffA6ziV/AdNLnWLtsDuw3/oR9223w10EvJEYG43JMBFBaDEVODlBaCmZmZPnSIjc7C+Qso9WqmbmRTK20KoCyuAQ0LZmqtBgaVSk0KgqLdV4ltGqAKKS9yRqcbKIsm5Ktuu+lBV6TAdcCK7VZZYlDqL5hdZnlcVYBtoqNvxpqKFFSWggt87HXQKPJgRY5uH4tDLt3WWO+1QS89vI/8a9HBPzvWQHPPCHgsYcewXNPPIOPPxiMZd9ZwmnLChzwckTQubO4GhML0ATH9wyo1kCtLEFJiQJqdak4pIEMjtR/pttIZyul9AMoVquZdZXOsSXd1IBapUVpqQpqFTnRqGTA8bqWw+o1Wd3vy1gCGXDGUtNNNZ+GNkg15YvHr7uPQ02q1aigBUmxWon8YgXySwpRpFSgWKNAoZLMhErmfl9cmoHk61HYvHUlXnntGbw7uC9W/bwKIf6huHn1EjJSr5ObJqAll83yjfFVZ2RUUVegTqGgO+5mZ7Ab6Vwx1CiFBgpoUKhVolCjRr5KiYz8QnZPTkEJCos1DHJkYVWqtcztnzQ8jaYUWuZBWa69kRbH8yvtd5Pul6eynnu8fOWwerA0lfKpZzU318dkwDXXmmsp6Tb0w6+pHHj8uvv0G3wONzEESjQEOjUUShUKS4rZU0XKQhSp8nWIAnKKMpGScQsZ2amiw6IubjbmjuFLPEHe+gQ0EkIkYS9PAeSXALmlGuQr1QiIjGBAy1UrkK0sRCFKkY8S5BPgtErmKqJQa5k2t+/AYVy5frcC5MSuRNI2CXI6BxOdeVIGnGyaLDNN6n0Hup9siw9kwLX4KpYzWFkJcEd60py48HM8pOdoX6VVMSEM+IPQAAAgAElEQVQTZkURTYfklS/2kVFMGp3/ovgsj4u/I6+oFCVqMLmVmoazFy8wrZHelVtUwLRI0iRLNGomxVotSAi89FxQaDR27TuIhKRk5OUrUKigfkMyWdIbxJAgzjeapksqHPA85PfVO+QNpxzKGly9f0SN96AMuMYrWznmJlwCHDwUiliqCCR+naa3IqEeOtoorPiPu+CLZ/lzVYVFxeTeL77rvPdFFCoUrO9NTIeW7VNfHBcGNoKbTug+0gQJcH+dOIWIqGgWR25urhivRgOlUskmVy4pKWH7MuBkTa5Mk2O/EuP5Twac8dS1nNNKSqAqEPHz3PGjVF2Cazev6cGtIuroiD9XVUhJIK0rJ68ABDja6F7qF6ONg608JOiVCw3lo61EqQLB8sqVqzh27DhCgsNw88ZtBjYCHEGNa2ky4GTAyYATvxv5f7kEjKoEqgIRP3/77h3ExMchLCIU0XHRBgOO+swITIcOH2Wgyy8sKIMbTaNVDjauxZXDTQq6Up1JkiqroKAIGRlZiI2NR1hYGC5duoT09HQUFxdXME9Kocfhx8yrZGLVSZ0rXzZNNg/TJK+nOldw835A1uCad/3JqTegBNiMVmTyI5rpbWERkTh73hsJSUm4k5KCAkU+CosLDQYcveZuajouXPRhb5R6NNI+Qa6iiOkTnUnK9/nELPpgIqilpKQgPDwc586dw507d9h7CG7UTycVBjwJ3Hhc0lCvWO495A2nHDYP0N1bgy36jAy4Fl29cuaqKgHeiJOpj8MiOzcfPn5BOH7yDG7cuiM6mOiWlxFdR8icSMvNVP2Pa35VhZSePw4dLoNqfQHHgSdxmGRjuwlg1PdG679Rv1xgYCB+//13JCcnlxUFmTC5U4r+87xceFj2UFU7MtiaB9h4PVVVjy30vAy4FlqxcraqLgHeeFNIgEnPzMChI4eZ2TCvoJD1eRH0FKUlDHLSmKpGm3ilKrDx81k5ecwxhEyMZKqsGXDVa3TS/jUCV2lpKTNL8jTTdQIeaXT79+9npkt+jcyUMuCMrH+OV76RhDLgjKSi5WyWl4AUcPv/OIALF72ZJ2L5HeWzipSZC8uGClSPOA6yqsJTf59hfW/cWaQhAUdamVQ7k+aH75NGd+LECQQFBSEnJ0cGHNdsjCXkPwQjCWXAGUlFG1M2SWOhvijpRg0/mewyMjIQHR2Nixcvwt/fv6y/Sx80HFDV4+zeq/w5HlIaaJ82MnvGxCeAO4iQBlcGUN73pgMpH3t3z3V+ny6UanDSfe5Eont1WcD74MgR5dSpU0hOvob4+EQUK0qhKBLH1NEUYPRHAB2ThlftZixgaCn5rLYyW95FGXAtr06NOkcKGlempHlDxI0a+lu3biEyMhIRERG4cOECc8Kgq2TO4wBpTMAVFBUzqIVHRuHajVvMBErvp/4//v6ysJEBR++lMuJ/ANAwAwJceHgkG2qQky2uYMDBxk2YYmlW8n9LafiNJR+VVGFLPiUDriXXrhHnjSB39epVnD17FgkJCazvibQ3vpEmQxoP15T0dTFyJqnJoUT/GTrmmhsP6X2KEiXupKQhJCwC1MdH18hEKTqK6PWx6QOuhmOp1ibdr0qD4/nnIWluSqUamZnZSE/PxNkz5+HnG4C8vAJ+S5kZs+yEdMdYwNBS8imtOyPYlwFnBJVsTFksKirC+fPncfz4cQa4/Px85lHIvQapLKjxJ+2NINjYgCO4kQYXl5CIhKTLZeZKghvz3tQfGlAD0Hh6eSiFmnS/NoCje/hGZkm+0Zi6gIAgXLzoi6JC0dRbpSbXUhp+Y8kHr2QjCWXAGUlFN9dsEoSkDTHlgx8TpGijMC8vD3v37GUDnckkSef49eryrq+Fcc2t/qHY5ybV4PILi+AfGAQahsDPE9zK9sGn+6Kwbv84yKoKq8t7Zdeo743DjEJfH3/s3r0XqSnpTNMrKaFpwJSsz44/T4snqEpUKC4sKc8Uz5yxgKO55JNXmpGEMuCMpKKbYzZ5o02aCXeO4PngY72uXLnCNDbS2uh+rsXw++lcdZs+TuoPNv5kxTaeZh/JyMoGDRynPjfe7vNQv+9PPz01HfMyqiqsLu+VXdMHHK07RxuZLffv/4NNB5afX8jWoyMAEtzY6kCUIbqVZ4yHzaXhN5Z0VlbpLficDLgWXLnNPWu80SZo8X2agio1NZU5jZC7+40bNxjUuNMEzzO/nx9XFeoDhGOq/mHFNp40NW8f37K5I3m7z8OmCDjpMAppudH5uLgEHD36F3NMoX47tnE48ExJQ35NDpvGgHBphRrBvgw4I6jkppxFAlFNG/WrXb9+nbn30ziu0NBQBjaupZEpku6R9rPVFCe/3tiAo4mVT585y14nbff5flMHHPXBkRbHhxDw8PKlZAQFhSAsJByXk64gNyuvXJPjmaNQH2xUEvrn5OP7Vyb8h28koQw4I6nopppNKZQIUqSt0UYaGe3HxcWx6abIE5K8ImkKKukwgKaWLzKdSqFNY834UjaUdq5Z8rCppZ/SU5UGV1lab9++C4JdREQUc0whj0wS2qivjuJq0puxwbVJV0bDJ04GXMOXqRxjHUqAGnrydKSNoEbaGB2fPn0aR48eZWPYyIGkuWwEbA5pmuj42LFjFZLOwcbDChebyEFdAEf9cDTUIDcnnw0zIPPl6dNnyoYZcI2Pe2M2kSyWJ0MGXHlZtMA9GXAtsFKbU5aooaeNQupPI6gR3AhyBDvSiGijfX4vO9GE/+NaKY3Bo0HVdMxF2p/YXPJTm6Im0HHNjWB2/K+TOHnyNNJSM5iJszZxPJB7ZMA9kGK/Xy+VAXe/Slp+T6UlQA0+gY1c/L29vRkIuMMIAYADjsx7zWWjNJNZkgDHN67VUZ6kwq83x5A0PW6SZB6VGlGbo7zQMW00cJxgR6Aj78smt8mAa3JV0pAJkgHXkKUpx8U0rZr6yLgpkqbPoj6q2NhYpulQ8Ukbf9onMEhF/3pTLHJK78mTJ8tMr00xjfcrTVyrO3/eGxcuXMStW3fY4qx8+MH9SkeV75EBV2XRtIQLMuBaQi02kTxwIFFyaJ80GYId18hoADYt2xITE8O0m+xsnZu5JP36AJPCjfb1r0sebRK7ZEolbVOqvTWJhD2gRPAZUmjVcdL4QoLDEBgYjLCwCJCDCndCIYeUB6LhyYB7QL+M+/NaGXD3p5yN5i28/4kyzGEUFhYGPz8/JNHq2HfulHkV0j0EQBJ6jt8vDZsb4CgvNIyBr6RtNBVfRUZ53xzX5Phtd+6kwN8/kHleEvRo07+H39uooQy4Ri3eBx25DLgHXQMt9P00sTEtScPd5FNSUsrMkDzLpOFJnS8q09CaC+AonbRRPsnkSnnj53h+jT0kLY42PnyAzJS0ekHK3TTWT0dzX9Zl49pfXZ65514ZcPcUSUs6IQOuJdXmA8oLaVx8I7D98ccfbFka8oTk/W0cXvw+Hkq1tfrs83geVMjzTpobbTQgnQBHG43r088Tu2Ck/xGQSEirq0rOnb0AEhp2wB1V9IuL4iA4VnVd//5qj2XAVVs8zf2iDLjmXoMPIP3UaBOwSPvi7vvUt0Zjvsg8Rxvvf6sKbDzZ+gCo6zGP50GFXEujsiCgBQQEsD44nh79/PDzclh1CdDYuSNHjuHE8VMgrY+GHfC+POlTsgZH/QB1FGkBGsG+DDgjqOSGzCI12KStkCMFucLT6thHjhxha67xxl76Prq/uk0fAHU9ri7u+3FNmmca7kBTiclbw5QAgY68L2mYAZkxaUB5g3tf1hUQzf3+hqmaZhOLDLhmU1VNI6E3b97E5cuXmSckaWs0fRaHGGlztJFpkjS42mx1BZr+/bV5R2Pew51j6B3kHUomWmm/YmO+uyXGzU2XPG/UX0cbTQXm7e2DpMTLbMaUuoCOm0Yr1fiaO7Dqmn5esEYSyoAzkoquLpsEDdLKeD8SBxY9QzNxELhozBqZ32hOSJrNnzuINDXgVJfPxrpGZZGZmcn6HanPkcpEqtk11nuNMd7k5GtskmdavodgR56XBC4CIe1z8FEoBVtV+3U28dUVKE3tfiP70ciAM7IKryy7BDbeIEs1r5ycHJw7d44NWibnCTrmYOPx6AOOH/PrLT0kbZU28hilPjgqSyoDeWucEiANj2BFfXM3rt9i815GR8WWwYzAxiFHKeAaIQ/1QScDrnHqqanEKgOuqdTEA0wHwY3MahxyZIbct28fc/GnvjaulUiTSPeScKDph9J7W/I+LzPyHKVNhlvj1zYfZkBvon6569du4vDho8yESVocd0ihkIONhzLgGr9+mtIbZMA1pdp4AGkhsNFGpkhaHZvmhPT39y8DHgcXN19ysPGQX9cPH0BWHtgraeFVKp/K/hB4YIkyghdzbY0PECenFFp1nJxSCHx5eQUy4PRNpEbwu5BmUQactDRa4D55OnKIcfMZhxVpZ9S/Rn1rx48fL3MY0YdVbY5bYNFVmyWuuVH5+fqKA5T5uWoflC82aAnoa2QEO5olhea99PXxR2pKeplGx19M99BzpAmSZidvLbcEZMC13LqtNGfUCJPnY3JyMjNBBgUFsWml6DwHYG2Apn9PpS9rgScJaPwPBioD+uOA+iYrm1ezBWa/WWSJoMVBR6uOk0MKmTFpqAE3X/J+Om66bBYZkxNZ5xKQAVfnImueD9CioTRmjeaFpJDGa1FjTRuZ1shEWR/ANc/SqH+qqcy4I056ejoz5/Jy4+Crf+zykw1ZAgQvAhkNFA8Pj2RelzHRcbhy5WqF18iQq1AcLepABlwzrE7SHGq70dyIBDMyo1EfG3lDSp/nmhvXTOhYXzur7ri26WhJ93ETb0RERNnE0TLcmm4Nk9ZGoMvIyMLlS8m4lHSFDTWIjY0v0+hkyDXd+jMkZTLgDCm9B/gsNajU0JJwrYI0Ma6V0awaBw4cQEhICDOfUX8bbfqwIqBJhV+HRgsSflxV+ACLoIpX06TH4sTHVdxg8GkqYxrsTuZdDjYqH3lrhBLQd5Iw9JimkVOUIj01Azev38KJYycRHBDMfjLKYiUUBcViJmjeTJU4JKERclUepaH5qer58jcY9Z4MuBZW/TSbBk2dRRobb3wpi7RPog8qKdyk2psMuKp/GDTe7dKlS6wfs+q75CsNUgJVNeD1Pa9LlEapRWFeIYPYrRu3sW/3bwj0C2TH6lI16Lp0I6eURtnqm4+anmuUxDa/SGXANb86YykmGJH2Rn1rNG6Nps2iQdm0Dhn1p0k3Djq6v6UBjutr5e2P9Ez5WWl5GLpPDiU0o4tUKzY0zro/z1u4uj/ZrJ7g2WyoUJJ5gpiqRIXiwhKm1WWlZ+H82QsI8g8CQa4oX1ykVfJIw+82VL4qi0eXWukX0fAZaNoxyoAzuH6kP5+G3q88cdSnQO7P1J9Aa2hRx3laagbrT+AOEPQkN1eS6ZI2jUYFrZa0uHKpoMHpZolgFj5yn9Yd60NRelx5Cu/PWf3SFk2TKgBS0b+rNsdVp5/yTn9ExMfHV9CQq36isa7wFq2x4m8i8fJsNkTIze5qDbRSoZ8L/Wp0sCPzpfc5b0SERrDZUmjNumanwfHy0hns+a++idTqfUuGDDgDi1oDFRpSKDmlagVyCrKghlpkDf06aX0xBRAUHIXAoAgmiUnXodKgCtFARTOUVPinhBr6QneUz9tHUKvABzqupi9OTNn9/5+KRMdgFopFRP9Ta0XeoQR1LnRcWod60qCqf1SmAUGByMrNYZmmN1YnhpSMGK8WGpTLveuj6L/dkDc2gWd5w1xVqJ9dIg8T6jCrhXBvEmmo1gJcKH6VBiWKYqTcuYMrly4jOCCQWUjIYUtqxqc/dgze9POpnz9DjiXJ49EYnN5mFoEMOIMrTGw8xUa1IfZFwhSX5CG/IJelLj9PCe8LQbjoHYL4uCtIuZOFYoUGytJ759pj322Z44hOY4MSWiYl0OJegVYpRsThRhO4kxArmhHgCEpioglstHo0OdZQSELnalM/Uu2P9nnTIIa0WoCfnx8z9VJj17gbgY3+yBGlHOnSVrFi+ho3PfchdmnWKtvXzy5BrVb1qqt7Df3WpSJZfVWqpmnBtLyiggIoi0tYNwDV+4ULF9iq7bwkyOzPuwD4uTqF+nnUz5+hxxS/EW8y4AyufK4lNFQIqJSix+PlS/E4eOAA/H0DWD8BeXix71n/R0vHpGUxs4sKWrUKWk0pEwYvbQlAAuqbk4i2ENDmAppcQK2gF1fU3nReZFKTpP6+wcVXzwjou5dqcIzDor6rg1kBoM2TQK429aMPwHthd/7sGeRkZUJVWsxEH4D3Huu3YHU5plzRXxpUd1zomM7zeOpZgE31MZ6tqkKqeKnWpqHftqJm4X/g0P1lIgWd7o88HjcrH/qmVKye1epSKFUlUCgK4efng6PHDuPSpURm7qdbudn/3vqvI6H4+w0J+Sspjnvg31QrvnHSJQPO0HLVZAANKcUpSAg+jaO7nXErLgAozQKUOUBRuggnVS4gFbqmpHskosoAuKgzASbpgFpfUgH1XZ1kAqr8eyDHvjNt1cMFDC2++j5Pn261gCO4abPqWDd0v0TUOUAFycOxPW4ACgF1HqDJF0Par0ronvoK/fEBElqxgKRQBzop5Opbgk30OX2wkUmC/4FGICvTzOmPF10dUz3XWnIArUQ0VI8SYX/0UTnzP4jonXRMYTGKFOnQohAFRWm4fjMOx08eQFxCCPIKUth5Sh9dr0zEeCguqXALQ2OE9IeyrpzKwiZa742ULBlwBhas8+Iv0VDitGgU7Od9hi2zhmO96XtYb/IBHBd8CaeFX8F58WgW0j4/R/v0DEnFNHwB58WiuCwdhQqy5Cu46MR56Vdw/H4srL8bhy0/TEac7+FyyOno0ZQBpw+5chOlAvlpV+C0ei4cFo/TK5ua6ms0K2sqbyaLxsJZIo4LxsLGahQ2m3/KZIvFSJBsnfV5g8um2aPwy6xRWDnnG/zutk5sxMsgx7U4A3/ATe3xCoAjkBPYMwDcBXAb0FwFtJcAJOokCUBt5TIAqSQDkMo1ANeZaLW0kO9VqDXJTFTaZFQmSs0VXL1xAQWKOCYaXIMW16sUHj9A77rG3iF9j1adDEMFqmSIcg1Q3YBWIk2tuhs7PTLgDCxhJ5P+aChxmNkPJPYzesNhZh84mfRlx+Xn+7JrdtN7sZDus5/Rk4nDzF6oTJxMe6NMTPqyOHl67Uz7Y8usgVhvMRhrZn2EkONuOm1PwTrda4Jbg3Sy17P8uRVGqsVJAVeYegmuq2Zhq9nQutfPzHfgVEEGwWmmKM4mg+FsMoSJi+kwuJq912jiYPEBNpiPwLrZX+CQ60pAk6Zr8MlcaQyAo3wS3G4xGIhwigUQCSBUJ+EASOhcbSQagFQoPqkkAEiAFvFM1IgDiaoKUSOeQZPCImUEKNQgoUqhuKXx679Hq42DIQJNHCqIOglQXS6Xen5vzfUxGXAG1pzd1B5oKHGY1guO03vD2UQUJ4LWNIq/G2yndIbN5E5MrCe1h82UDhJpB9up7fWkI2yndoTdtC7lMrUbi4un13p6N2wx6Yb1M7tjjek7CDpsDahTdSY1ccZ1/T43/WMDi6/ej3PA8ZCae9oX/y9CfkoSXH6xxIZp/WE7pXvdZHJP2FaQ3rCd3Bt2U/rCeeY7cDUdcl/EyWwYNpsOw0bL4Tji9AOgui2a11Ck8wgVc1zvQmyKD1bQ4Ki/TAo40tQITgS3QCZahECLsBqlcgiWg06LKGi1MWWw0yIWJGrEMFEhBpWJQkVwTUaRktIQDzV7hp6rXHi8POTx85DS0FACTQyYqOIALk2xzhsxTTLgDCxcF9M+aBzpBRfTXnA26VkmTjO7gcRxRlcWsmOTLnAy6QJn066VSHe4mPUQxVSMT5pWZ7NecLLsCVvznthiORhRx+3F/jhtPus0J89pfaDpHxtYfPV+nIONh/qAK7ybBLeV5rA1fbfsDwb+h0O14UyCmL70h4vJACaupgS4+yMuZoNgYzIQWyze1wMc9Q/R8BRjAhyZEkn74dpbMIBg1A1wlWl6IuQY4BClA6gIt5oAp0Q0SjRRTApKQhjkqgIbP8/BxkMONh42CNwI1pQXbRSgiQLUEqn3F9c8H5QBZ2C9SYHR+PscUnohh5h+WAY1vfsl510t+8LRrB/szd9HwjEX3V/MpCFwjcjAAmqkx/XTV35Me0XggLMzG9IAf4D0g4tpRXE164/GFhfz/rA36Qdri2E47PyTqF0zz1ACHHl88mEMjVTIDyJaqQZHedRkQKulPq1LTKO6V1uLgBYNLSIgCBLqRhYO1oYNy8sD2ghAQ6KD3YOo0wf4ThlwBhZ+40OtJg2xaniRBliTuFv0hbPpADiZfojEo26iFyGKyxzuCRdNcSsHGrWI5c7Z3ETZsIC7tw5czfqi8aU/64MtBxx50pJnnDECLhFaREtMkdSIE4jKG/PG2FeD+tUaTxojzWKcotkWCAODHGlzJEa2yYAzsMJbEuASjrnpPPWKy1zwmx/gaBUEBQrvxMNthSkaRoO7F3D3p97J4agvc5T50+lHQJUKaMkFnZwvaOwXhU21hur5YelpcFp1uk6DkwFXNxhK+yX5HwMy4Or5qzTex+5PQ1ddA1uzlladFifV4DjgNGgegBN/dfoanAy4Zv01yoBrIK1UBhx9B7IGZ2BrIAPOwAI0+HGxRaxgstRpcNuWyxqcwcV73yPgNUlhKR60Blc3ralxzaV1S4sMOPrpyoAz8AOWAWdgARr8eCWAUyuguB2PbStmws58cAM4mVSnQTfmNSM0UZa5N8mAqxvQ9OEqA04GnMGNK5pA42mcJsryqtMHHI2BlgFXXj7NbU/W4AwDGwedDDj65csanIHfv6zBGViAhjxObNNNOsybRRadDnDbl8+EvZmswRlSxPf/WV6TsgZnGOhkwNFvVwacgV+wDDgDC9CQx2XAtTwvStlEKTuZGNIm6D0rA06vQOp6KAOuriXWgPfLgJMB18jj4AzTori58EGEsgZHLY0MOAPbWxlwBhagIY/LgJMBJwOuCo1PBpwMOEMaV92zMuAaoBDrG4UMOBlwMuBkwFXTfsgaXDWFU5tLMuBqU0qNdM99ARyfg7IxhwNUFbc8TKC5jYMTp8WK0E2PVXPYeCZQWYOjVkcGnIFtrww4AwvQkMcbDXAcatKwKgg15nkZcDLg6tt/JwNOBpwhjavuWRlwDVCI9Y2iNoAzpdUE6gKqfmVL49TtucYAnQw4GXAy4OrbPNBzsgZnSOlBHuhtYPEZ9nhdAadb061acPF7eFgGx8YAWE1xyoCTAScDzpBGQgacIaUnA87A0jPw8VoBbli5RmYyEC4zB4tC+wQxtmAtnw2mj+5eusaF7iENsCYYNcZ1GXAEOGiuA0hki5GWrwdHDX/jL5ej30d2Tx8bLUdjiNB6bQaIfvrKj2UTJbUuMuAMbGMfTMMnbUx541y/sLmuJsCqrdaA47DSAxwDVy+9Vc/JRCm5n0FQBpyBn0kdHr93JhMZcFVDsBxo+pqeDDj60cmAq8OnV9mtMuAqK5X7dK5GwJnC3vT9e4El1dzMusHFvAtcKKQV0UlTY+ZJDjlZg7tPtal7jQy4umh0MuCq/3XKgKu+fGq8KgOuxiJqvBtqAziTDys3STKwdYKLeQed0H4X3Qro+o4mUo35fu7LJsrGNlFqtOFVjCPT14jE43vgY4h5smy17ao1tHvep2fOrBpwlF6uxdE+mXPlBU8brzFqoTHLgHuAFVtrwA0RtTjTPrCe1B5Oph3gMbcLXGe9BRezVnA1fxPbrDrA2aw90+RczXvD3bQvE1ezvqgg5r1B1/m5qu6r6jx/rnZhfzjM7Adri2E47PwTQP1RKGLrpAHFupA0npa0NawGxwHBQVBQ6IsihR8UxQEoVQaDACcVab+eRhsKpSoExSWBoOfy8i9Cq4mEVhOuk9B7+9+0YUCdpP5wo7zxfJWHIsjKj/k9MuBa0ldy3/IiA+6+FfW9L6oV4IbDZSYBjkyNvbD/+yHYOb8LHExexbY5b2C71RvYMfdNuFi+gd2Le8DVojNczbvD3awn3M10MJMAjcFNclwVyKo6XzuwiVB1Me8PexMZcIb0wUkBB0QCTIsRnVOkYOP75YALAwGOzhMs+HPQRkkgJwPu3o+yaZ2RTZQG1kdVgHMz6YNaiWkvuEmEGuGKUpNJTP/+uh23bCcTU9ibSABn1gMec7rBfXYbuFq9jOjdo5B60hR+9h/Cesbz2D6/HVxmtYeLZWe46yDnat6zgsZWFeBczPtCKmWA09P49AEnfebefRlwhpoouYcjmevUzJyYwGCl1gRDUexXQXsTYSbCj+4HwpnnJoObNgIadSg0KtLeuBYXCmhDdKLT3KoyWVap1ek0OE0EIBVuiqwqPt35cjMkmSMjoEaUTmifa2+yidLAZt54H68OcNTIMcgxgHWDm1mXcjHtAbdKhDk6kLMDE50DBHOC4Od0IZ275zw5Suik7Lr+cQ84zdQ5VJj1QMsHHO+DG8DKlLS3bXNbwcXqv8jxngZl0Gz4OgzC0k8F2Fu0gtPstxjk3C06YrtZV7iZdkMZ5BisCHjd4WrRFe7mXbHdTNT2XMx7w8myJ5wsu8PFQjy33ZS0QLpf9ww9V6b99YerWX+4WPRk97OQrln0Z6B0NusFZ7M+sJvZG1vNhuJPpx8BVapsorynX0naiN+7T4DjcBMBFwONOhgFueeRfve4DnCh0GqDodWEMiiIYCDAhQC4xEyOuVmncPvGn4A6XBRNKKAJBjQhOqkn4KRQ098nyFULOEpfCLQIYdomB5wKUVAhgkk55GQTpfFSyoCc6wNOqrUR4HaY94OHeXe4zGwNu6n/g+fcN+Bi8ipcZr4Fd9NOrAGlRpRLGaB0ThDb5rSB9bQXYDu9NXbO6wV3y67YbtUZTuavwcH0ZXjN74Nts9IfL0cAACAASURBVHph75IBsJvRht2377vezARHmorDzNZwtWwLd6s38Ov4Z9nzDjM6YffCgaDQ3aI3nE0HwMn0QyQccwO0WdCgGGpaGLupT+VbGxNlmRelCDj3We3gavV/cJ//JBTB3wIxM3BkTWtM7S3AeW4HOM1tA1uTV1i/nPP0NnA17SgCTaeJec0byPrwXCxbMfPmdos34TijDVwsu8LWvAO2mr3CNEFXs7Zwnt4OnnN6wsm0HbZOeYWZRp3Nu8DJtDccZgyE/Yy+cDBrB1uT1xhUt8/pBWfLvnCy6A1H8x5wMOsO62k9sMnkXfxh/x1QehfQFkKLEgAKQEuh3Ad3b38TgU4EWzngQqAmECCYQaM45SQ8Hcywds0YXLi4GRrVBZQWn0dBqR+ABOTmn4Wy2Fc0TaoCcffGPuzZaYnVyz+Hz5mtgDYUqgJv3L7yO6AJB5QUb4LY/1YGYckYOX0NThMGkKgjykVF8ZDZk5xBSCJ18UVCVeIHrSpAp1HSs/Q+EoJcKJTqIGTneyOvOBBFpGkiAfnKYGiZWZZMs9E6MaCxa4aPyiZKAyutOsCRhuZp1Y0BzWvBqzi9vjO8rXvgok1v7JjzCqy/fQ5u5h3K4EaQqwA4i7dxxro3Ljr1xrF1XeEy6yV4zG+Fszb9cNa2GzwWPs/6juxmtMLR1f1wwXYIvO2GwcniRexc2AYOpv8HZ4vXcWBZd3jbD8Z566HYMbc3M4F6WPVhGmDLBtxM2JvqBnrTmDfSWGe/DVerF+C+4F9QhHyN4tBR+NvmNXzbW8Du5Z1wym4ATlr3gavlC/Cc2wbuFu0rAM5hehc4zGyDbXNfw7mtveFj2w8X7QbDYfbL2LbkDZyy7wFvt744urITXM1egZtFG+xe0gVH1/RAoOsIuFl1gNusXvCwehc75g2A65xWOGs7CMfXD8Pe7wbB3rQHHM37MNC5zu4Hmxm9sNl0CA46fA8oU2TAlcGDm93u1dpE4FUOOCACyvwLQIEfdtvMgJVJH5w7tRpAAKC+yMySZKqEOhiafG8duCKgKT6Dk4eXYIHFO7hwYgNUeRcQ7msH80ld4X3iVwBxgCrYMMCpI6AuDAAUQeJ7CZwMULHQlvqzNAGxoulUEwSQMMgFQa0KQKkqEApKN2JRhHCoESMDzsD23egfrxZwZp2wzeoVhGwbiKLAKUDibKY1ZHqPgiZqBk5u6MgaQKnpkpkduXnRshXyAsdDkzAOqd4f4axDK6hjJ0MRMQb5IZ8iy+8LHF7TFu5zn0fgtn4oCp2CzItfY80EAY5mL8PJ7A3YzHged0/NRPrZaSgJ+h4zuguwndwbexYNwt4lA1u4BlcD4ELHIO38IPi6vQLXxY8iI2QSbvmNRGHURGReGAMX86fgbvkWM0fyvjcnky5wsWgHZ8v/Q9y+D1ES8g1uHB8GxwUPoThxGgoTvkRW6AggbiouWnfBznmt4LX4TeT5T0VB4Ay4zW0F25mt4GbVCZ5LOuLYlk5IuzgVpRGr8f1nz2HLlG6wNekHd6sh8Jj3Pmym95EBV6+ZTDjgRBMeaW9qEBAiGRjUaSeRdMEePofXAAo/pEe6IfjoMpRknEPa1SPw/mMFrod6iLBBKFD4N0K918H/1CagIBCh57fCYf03WGQ2AG5bpomal1p0OuHaIw+ZmVFfg+PHUrMkaXPFwUBpKDJuHIH/35txK2kfCtNP4dThFQj22cq0NRT74mrsTlw8tQpXYrYBpHVqQpCVeRoHDi1HaLQncor9mZAGJ2pxsgZn9LCqTwFUCzjzDji4vC2KQkyQ5z8ZXt8/jZXjBZyzfxVI/Bq3Tn4IN8vXWL+cq2lnOJnoxmJxwM16DQUhY1ASPRLpFz9G1L5+cJgtwNulNVIuDmaQC9rRC+u+FXBk/YvIDvgcJVGjYWshYNXYf2Hngk7wWPAKrvz5JRRBC7BjfnsMelxgLvMeswfAdmp7IwfcV1BGfoKi0E8Q6NUPa00EHHd6EzmhXyLHbyRC3HvBfVbrCoCjPwy8FnTF1mlPIf7391AQOBxp3gNx6/wn+G3D89iyQMC18/1RFDIcqtDxWPO1gP3L24LqqSRiCvb81Aqrxj2KLTOehcvc5xD2W3+k+05E6M5v8N7/BPw6sQtsZvaH26z3sHvJJ/d6UcomSp35sbYaXEXAaRAIqPyhzfgbzsu+wsIJPXDEyQIh+7/Dkq/bwOzLtvjRdDCWTe+HJeM7w3PjZGgy/4bi7kFYrxyBpSYD4GVjhp1bp2HFnMFYueB9LDZ/Bz/MG4aSfNIARbByuFFYLeDI1Z80NQ46LYEoCdE+jpg7tRfmT+8Jq8ndsMSyHxaY9ob1qi9RnHES16N3YLFZL/y8eCjy7hxlmmNM2DaYzuyDb6d0R3DEDigRKelTlPvg6tO+G/0zojMAOQRU4r1o3gkHf+6OMzYD4LGwNfo8IWBSHwEbZwhQJ34GXJuCHz4TsGliazibdobDjA5iY2rRlfXpuMxujYLQb1ESPQW3TppgQmcBH7wgYP5HAsL29kZu6EikXvgcW00F2FgIiDvYE9lB7yHpyABM7SkwN3hvp87ID5wCVegqTGgvYHxbATaTO7H5FT1mDYa7ef8W3AdXswanifkCt09/gK87CxjZVoDJMAEnrDtDEfoVbv71PjZ/+xTWjHmpzLPVZsrbbMwcAS7Cqx9KIj5EfvBH+GWCgF5PC/iyi4A9K59H7sX3gLjxcLN6BmvGP4STW9oAiebI9J0Iy2EC7Gc9Cee5j+PGuQ+hiJqJ1RNewph2pHkPgIPJO3C2eBeOpgNlwNV7LkquwYmAETU4sb+KTIkF1w7DY/U3+Glaf5xxn4f4P1dg5cSOmDe2M5Z82wcHt0zHRqqDH7/AEXcraNOOYPv60fjR5B0ccVuIopuHsXzWQJh/3R62q75GpL+TaKLUhDJnFXGIgWQYAdfYpCFoCIIOQqoQaIqDoC0IAIrDEXfOHisth2LuxK6YO6kbzu5fBusVX2LlvGGwWzkapIHutZ+BWRM64EakB1AcgJ2OZpg4th2W/zQKxcWhUNJ4vTJPShlwRg+r+hSAFHBSyLHzFh2wfeErWDFOwK+Tn8G2hW0R6vUpYg68i+K4EcCV8VgwXMD6Ca+COR+YdZYArjNcrF4HksyhijFHsPs4DHlawIrPX8P2eZ1wwvotFEWOQZbvaDjMEvDLeAHHN7+OTP9hUMePx8x+AnYufgU+7m2QF/g1wrdPQC9BwJaJbeE1j8A2iGlyxg64bJ8PcGJjK3z5toAtJj3gPL8jLroNRkn4GOT5fY5fx/8TK794ngHO2aQn7Ka3w475HWFr8ixi9g5Ecfj7UISNwoCnBSz85AXYWrbHgdUdkPb3ECDhW/g7DcKkngL+WPUWbp7+kv3BsnqSADvLf+K3lS8jP2Icbpwbgy/bCrAa8jKDmqNZP9YPR+E94+BkDa7WGlyZ5sSGCIhOJuSQURXgVnzbEd9P7Ye7obuBXF9Yz3kfy6b0gcfqcUDqMez8dTQWjuuKY84LgOzzcFr5FcxGvw2fY+uA4kBoSwKBOgCOtLtSnWs/EAMgHsinPrhwxJ+1x2qLofhuSi9EkFk06wL+3v0dfl3wIZZO7cXeH3BoJX6ZPRi/OZpCnX4GqxYNxwKLQfBwthLj0kaVD4PQREKjIWcT49pkJxMD61sfcNJjx1ltcNa5HdKCRiE7yArxB6fCb/vnCNvzEfIiRqE0YQL7a37VuBfhOqsrPMgBxJK0t85wsewIF6tXkek3GgWhE3De7n2MbSdgx4JucJ/fGudd2kIRNRaFIZNhY/IvWA4U4DzrOdw5+wGUMWOx58cXGPTuXhiK0qgJ+PGzR/Dx8wK2WQzGNvMh8Jg1DHsWfGTcGlzIeKgjJuDE+nYMcC7z+sF2dmsc3dwRuQGfIPP8J/jlq0fw48f/geOM7tj6bTvYTG2DbVZvY+v0JxHhNQCKkE+giZ6Gd54SsHZiD+xY+i48lrTFnb8+AiKnIG7fKAx9XoDXd93h5/oBiiIm4KxTa/w8RkC45/tQxpvgtzVvYch/BaweM0AEnHkPOFt0Yn/02Jv0qjiTiZEBDpqMeq4mIDENMrPhvYDbtuYbfD+9P054zEP0kRX4aVJHrJn/EUpTzgIlYbBf+gl+nTUUjt9/BmSexJ4NX8Pqi3Y4bGcFZPlg25pxmDOhM3xPrAdKyaORxrLVTYMrRSRKCHL0XEkwkCcC7tIZe6wzG4pfzAbhdugOBlzf/SuwdemnzHyqvHYYRZf+wPZVY7FkUjfEnbfF6gUfYYHZQCRG7QFwBWBj9nQztciAM7ClN9LHpUCT7jua94Lj7Ndw0+d94OZ4HNzwNj5+U8DIdgJ+HCcgI+RTFMaOx8yBAlZ+/Szc57aH15JucKFxWGwsVlu4zn0JeWGjkOb3AU5ad8CU3gJsTJ9l5q1T9q1QGjsJ+QEzsGb8I5g7VIDLrFfg49qBOaHEHXgHq78VoIodh2vHh2P4iwLWjX4bXlYfw3nGu9g6oQcbh9XyNTjJgqfkRVk2TOBxFIaOhzJyPPav/B8m9RKwZ8U72GL5P/zt2BnKWLEfbtkXD+HHT56C3Yw3YD31VTiavomdC9rBesYTiP19MEqjRkITNwXvPCPAYXZ/bJr5FhytXkKm91dQhk/HOfsPMeR5AdsX9sOpre8hN+gbFIWPZRp2xvnJKIiwwKzhAiZ0exRbJg9lJkpHi24i4Cw6QQacgYArGxAt9sUxDU4djNzrh+G6diKWzuiPE9sXIOLoSvwwqSusfxwFxe3TQOoZOP30JTbN+Qh2iz8F0k/iuIslln7TA8edFgCZF+C8YjSmfdEGvqc2AKpQlBb61Aw4PjyAQpa2OBSpgpCachLXE/eXAe7KOUcGuHWzhiIjchegCMHuDZOxfEZ/zPriLSDLGygMxHHn2fhhSi/Y/fA5frJ8F0tnDwW0pA0moKgoUNbgjJRLDZZtZ/prWyI0fqlMZr+GjNDhyIwYis3mAqYMEGA//1/40/pF5Md+wiA3b4SAn0Y/AtcFL+C3X97EgTVvY+f3r8HJ8lW4zH0W2SHDkBnSG9EHu2A+DUa2egi2lgJCdncHLlsh5ex0zH1fYGJt8hS2L3kSpbETkXi0D3b8+BAUEdOwc+mrGPCkAOvJNFv+MFHM3mEDilv2QG/qgxMB52zaj9XT9rld4Dz7FdjP/heKo75FSdQI/O3wLH4cK8B+7vPYavkkwva9A03SSFw92Q8LPhDw0+eP4/eVrbF3+cv4fUVXZjreNP0fCPLqipygviiNHYE5wwU4z38DG2Y+iVMOXXDH91Nokq2wxeItvP+qAI8lA+G2sD3unP8WpZGT4ThbgCJsKmIOfYMRbQTM/eBF2JsNhmie7CX+psx6wd6kj/FqcDTOT5MBrfY6tEgUZ+jQ0NguggONE6OGnMxu1Qm52uuJKhipN49gzXefYKXlezi1bREijqzDLzMHwXbJKCDVG8gLhPvPY7HKfAgcvh+FwsuH4LVhGlaYvotjrguBzIvYvn4y5kzrBVfbGchOPc3SxGY7oXFoOuHzVrIB4jTOjYuSxrzRcSigCEBSlCeWLXifAROKUCR7O8N60WdYNn0ADjvPwTG3udiy5BMsNxnIHGOgigJSzyLur01YazoYSyf3hsW4Tji09wc23o2GCpSyAd+yBtdgjb0xRiSFG+2XwY32Z7dCZugo5Md8jvDfBmOz6aM4btcBqQGjcd17EEoTJ2HVxIexZebzcFv4AnD9R+SHmuFv+75YPf5x2Fk+gezQwSiMHYDs4OG44NYWDnMF/LWlNVLOj0HmxRm4dsQUn7cWsHHyC/D6rh2DYuLhYVAljIEmaQLUMXMxo5+AOe8+AoeZNO0XNfhDdNNK9W7hM5nMZNAgT1cGOHIEsuyInYvaY/30R5EbNJGZcxWRX+GUfXts/+EFHNzQDoURM5AX9jnThj95TcD8DwQUhExFacwM5PjOwfefC9hs+k/EHuoH3PwEuPIRog68hy3m/8aBX1vjypnPoLpqhfzYhXjvdQGWH/4PtlZdYTP7Ffhs6w9F5ESoE75CQdgY/LlxED54XcDyMW/BekYfcQwcc1iiuup372TLxmSi1AOcFtEoUdJgZ5rhIwZqdThUpcHVizIQKmUgGyNG48RotpL8vPO4dvUANq8bh58shuKU5w8IP7EVP84cBLsfx0J1+wyQ7QO3dd9i7YKP4bDqG+RfPw73TdMwd0o/HHRbBOQGINLHAT8t+hCWpn0wcVx7NsMJBxoP2VyY3EOSQhoKoNKJUjc9lzocN+P2Yd0PIzH2/ReBHB8keDtipfkQLJjYA99N64e1c9/HvG86471ODyGVTJA5fkBpBHD7NFy+/wKrZw3DqHefB4rJsSUR2aWBKNCEQgUZcMbIpQbLc7WAm/U2Lrr3Q4b/eGQFzAQSliMvcBG8fmwNx/mPMO85xP+CAPevsG7yEyiJXIr84PlwmvMyrIYKsDV/ElnBQ1GSMBxX/hqB45s7QRNviYKQ6UDST4j7bRLmDX0Mn78miNM70fACq9fxx+rWKIkdC1yZijCv4Rj+soAVo56H14JhcGGaG00H1ZtNE9XiNTizwWyNNxFwfbBzQT84mL8B+1nPA1d+gSbye4Ts/AhHNnZAUdRsFMfOgSJiNgK2vY9JPQR88ooAO5PWSD0/BaVRVrh+bAa+fEuAjeW/kXhkMBSxg3DHpwfsZv8LqRdnQZlgCVxfhJsXZmHt1NZ4WxCwdnpn2Fi9Ddu5z8Hth8dw22cIssLfxV3/jzB7hICvOgvYatKXjX8jDY6m6BKHn8iAo5l1uAZHgCO4EeRoNQBymsjJPl+DnEFO9hlk54iSm3OOAY/iOXPqV+z3XIyM68eAoiD8tn0BTuz/BZp8ms0kDjeSfsc+z0VIiPRiU3bFROzAb7u+Q3TIDqaJqUoCEBbkjF1e8xEa4o7bN49CUeRXQYoVASgtCoCqsFxoMDcJ85gs9Ic2zweq7AsI97bHmT9+BjSRiPNxwnem72DtohEIPb0FPodX4cTupQB5WZLmp40CFMHIit4Ll+WjsWhyL/yyYASUef5svsxiTQiyFT4y4BqspTfSiKoFnGUHWJv9lwHNfeFrsLN4GSYDBHz2hoBFIwUcWtcB2xe1g+lAgXnRBW4fDRuzVzG2o4DFwx+G69wXkRk4HMWxo/DbircwvpOAnd/9H1zn/wdrJ/wbo98S8N5/BPwyqg08rIbCbVYfOFm2huf3L0KT+C0Kw8fBwfJFfPSiANvptERMfzacgfUV6syqLRtw02FvNlAHuAFMi3O17A2b6W/CdW4bHNswGDYzWmPWYAFjOwuwtnwa25a+gp/HPYIx7QV88rKAdeNbsWm0Atw/ho3p01g74Wn0e0KAtflTiDjQF6VJQ4GbY9HzcQE7lvaAy+L/4eeJAr7uJmDQ8wJM330aG006YedPXeD586twXCzgmvcAKC5/hoDfumDY6wKWjvo/OM4eDFerIcxEKQNOt2QOaXB6gCsu8QdNlBwVvRObNk2BjfXUGmQybKwnY6uNKNZbJ8HRYQZuXD/EtDkyb5YWB5aZFAlsZF5k2h4zhSYxkx/N7ViqpmEGNJNIPEo1Qbr5H0VzaUbaaWxY/w02b5pUQbZungzrTaLYbpoMqdhtnIwta76Gp5MF0q7+KQ4WV4ZCW+CHaD8nNr5uy8oxuBy+U5wppTQQ0EYyTVGZdR4R5+2YmXT9ghH4YvB/cCN2n5jWUhoiQJpcvNwHZ6RcarBsk0NA1dIFrnM6YNO0l/DdyEdgOUTAgg+fxLoJrWFt+gp+/vpxLBzxMH74/BmsHPN/WPX1a8z5YOFHT2DdhFex1fR/uHPxM2QFj4Gf2+cY10nA0pEC5g8XYDFYgOmAh2A3oxPsZ9LclB3hbNkGG6c+gb82v8U8LJOOvMfiM+v7MPYsGQy7mR2YZx4NSXA278b6eYwLcANFUyWZjy3bMZnaXYDFgEew+OMn8fOY/2LRiH9hQhcB5u88wszNrpY94Tq7M5svctFwAab9Bfz4+aOwNn8GEfv7Q33lfeSEfoABTwmwmTYAK0Y/iwUfC1gw/N9Y9uXrsDfvAzvT9nCa/xJWTxNwyOZF3A76GJkxY+H0w7MY3l7AZosecJzzrqzBsa9Ssh5cJYCj8WU072JunjdCQrYjPHRbrSQ0bBtIAoNcEBu3G3dTjiO/wOee/juanJhEhTAmNFhaKmo2bo3GrtEYM5oOi8ylkcwLMjFpHyLDPZhEhXuAhLS+qiQ2fAeCfOyQGLkTmbePQZl/EepCPzZNV/BFO3zx0YuY/HVbdp2GIbDpwNicl5HIu3sSW9d8jU8GPo2PBzyDvU5WQHFIWR8fN5GSSZb2SduVhwk0WLNvPBFVDbducDDvCgfzznC07AS3uV2xbX5PNoEu9dPZm3WAjcnbsJ7ZBnamHeFAE/Ca9sWv33TA/7d3JsBxVGced6p2ayuV1NbupnZrj+y9JGBs+dBpWbJ8gUMCWZIUAQI+ZElzSL4xDgSHuIiNwYes+7aEzRGOcAQI8UICJMSAbwzY+LbxgQXGp+6Z7v5v/d/rN9PTM9KMNJKso+X6/Pqe6fe632++733f9wpnj0ZlfgLqllyD02/9CFd25eD9jbfhtmtHoG4RoXm9yFlYnDMOT983VcCtftF12LI+Ax8+zawns3Dh3Zl4cdVI3PKvI7DuJ2MFzEpyrkGl51op7lGodCcM8UwmSoNLRJVrIqryMmXpShU/Spj5vzZ/AmrzJ4qxr3L3eGxemoXaeemo9KSJkjMDFM/9H5TljQTrr8z1Layf80/CxPnxi/SQ/Qmadt0htOQq13dRN38iinOvR3HOGLFck8+EytdgS2ES9jw7Ged23on2owvw6dZcpH1zBBb+4K9Rfk86ir0TUOpKExoczZNM2u2MwYVrcHQYEZDz78Cly+9AzfcWrWTAM3NMijyTwimFDioUM6mx6aiiAMeZBwg5Ai0S4Ag3KUyFJSEnQKJJoARnHbBNg2Mdj9P3oPny2yIDitb6LnRqaMyV2fYuOlq34rNTL+PooWdE3F5bE7Ok7DWPOSBi7q58/jrOHHoBh4WX5Xb4L/3ZdFwxnVk0Tu3jAG740KgP7rQrwMl9owXANsy9FutmMdHvaFTkXyemValbmCygx7J2XoZIz8QUTXXzM8Ft9Uvp8j8POPhT7Nx0O2797xGonZ+GmoIJAoZF2YkozU5Gydzr8eJDaTj4wh249O58tGy7D4d+nS/Ml3PHfB1l2ZNQOGukyFxf6fkWqvK/bcZZjRn6gPPIiU4l4LJQlZclIMeExqzHhvlTUevNAn8srJn5LWxemolNSyaLTCLr7h4jfgQwy39J9hgBw4aFKSjO+TdscP2diGds2+NC6457kPbVEdhYcDNq8rOwITsBG+ZIeFK7ZmD4wed/ABxcgs/fy8HpP8/HjSNHIPPfR2C1e7QAHMfgKvMzBFg5ZxxnouB0OmEzeg83JxObiVJ5RBJUPv8uaMwAYvFa7GqZAAp4XGq7xXkCjFYvTAWgwHxs0kMzmNOxE49NMbUN9xGYVlE5ICOVPG6XABjH89patwqRTjT74eugQw3nntuJ5qY/inUJrJ24fP73aG9+JzC2J2YL6NgpAae8MwVs5aStjgbXB53/cLhkNMBRg6OUucagNG+U0OQK5/4nCrO/jdr5KShzUxsbLdzBmZqJKZpqCiYKAFYUXIPfFabj4ZlfxYJpI3D7yBGmdpEus8zPShBpthoWpOOZ5cn4zcPJKHX/o3BrT/nLEbjxGyOw5sfJKJopIVjlvU7CbVgCjmNwFi3OnSycOcpzJohpa6hxsY04pxsz+jPJcSWh406QkpeCGm+6GMfkGF6p659F8D3re9Xtf4/0r9FEORGbl8yQZlBXqnDqqXIloCb/Wjz9wLWoXfQvePD2v0Ly34zAjf81AivnTkDpogxU3zMR63MSUZOfCc7i7QCu8zE4BTh2/KLTjhFuBB9h6G/fBp1B2ZzXTYGNULMuK8hZt6v9XZXGHrQ3bw0ROphYhU4nVungmKKfSaA5lie1U47/ye8jp/2R97wHV5r/CI5BcqJWekrSO5T3I4FqAlRMuWNOu+MADk4mkzgpHB1wNFNaRQIvuE2uy/CCRIgAcc84YaKsLBiFDTn/gUXTvwJvxggs/99/ECZOmtJUOIJyGFHZT+ZPGiGcJn75o2+ieE6CmECTZjIxllTALCkjIUBnjsMN7ely5qKMGhwnj7XNlF7lGotKIZyvbTzK88ag3DVawiywfazIEUpI8Xym6lIT0TIxNrON3HfT1zE/8y+wePLfojIvTUIxLwVVuSmoykvCE4szwKmJmOJr2YyvwZP+FSz73jdQmD0W9YunCS2SmiThFglwnDMuZMJTR4Mz49qoLX0YZqIMjj3RPBcuSsNT+6KZNgPg6wps1n1WOMYEyPDkzNZEzSqnpSoJNU7YqkRopWoSVhVjJ8qdgAk4HuNocHF29MP19O4Dzgo7OUYnxulsziocg6M8viwDRTnXYf1sTouTHICl+lzpLDLGnBV6LB5blCocSuhUwvEjATY6ShSMFUIQqjRQ9AAd8k4mAnC2efbcY0BoUZSGRrgFAKe0NjePGWUeS9hZJG+8AB61581LJgltjbNxczJTigIcoSglCeXZiXh8yTRsWjQF9QXpIk0a63+jl+OAmUJolrRqcA7g7GECKmi7dwAXFXRWeMWy3MeAU2BTZeD72yHHqXvMtGEO4IYrnXrhvhVoOiuDmpodbKHr9vPpAEGh+ZKAY1lVMF6aLi0wJMSsUkgQzk8SXpKP3snZvMeHiMx1mWCeM37YA06Bzg44tT1YWuBG0JngomZHSD22MBOlc8eFAi43xYxnS0ZlTjJ+tfQGlMwei4q5SQJiBNvG/NQQwNV5TPB50sBlB3BDH3DSPKlSd4WWasxNlQpsqgw4syjAqTIAN6uTCc2Yw+vP/kaKnwAAGNdJREFUMVHG2d52MNnX4wEcr0Ww1cxLxOalE/HETzPDQhKscKM2p7QQlnRw4DarJmc9vtrrAE4BrGvA2eBGE2buuBCp9qSIMT3GsAU0uNwUATWCioB7fOEU4ThCLY05QCkO4OwvYNdhAtYxuN4wUQY0IOVUYi9j0dqsx/RAg+sLwCkgylKZKB3A2Z82Zz1KDdgDveNdJ3QoDEhWJZcZxK22WT/DCixlrqTZTS0rwFmPCy4PX8BVu6XZMsTsaDVB2pcDpkZlcrSXSTKgPC9JjL3RxZ8iYZYulqV2Rg0tqKUpwIlZHjjTg3ei0OiEdued6HhRduJFKcfG2GHbvBrtgLKtK6CpstfH4OzfJ+q6Mrl2Vnat0XWmwTmAkx23o8FFAVi03VbY9MayFXAEmhIFOK5bPycIK8a6MXhburarZVVajwsuO4DrTcDRqUSJFXAKcg7gor1N3N9NDc4OEBvQ7ABTYFOlfX/Yuv36vb7eGdjUdgdwsTw1nR3jAK6zmolxuxU2vbGsAGcvlfZm3x6ElQM4do3iT2tF6+n9qH9QeVGGO5n0hQan4MbSDjjpPEIHEiWMc0sJmCgdDU41ng1wltkEZC5K1fGbTiZ24DiAM5M+c+zNnFHc2APD+AiGsU9V8rApHcDF2dS9ATXrNcIBFmqyDN8fdDJR2prdRMntVhAGlx0Nrr80uCDYHMB1/co5gAuOMxLm8Wlw4nwHcF0/cs7ezmvAHl/V3XUr3KzL4SCToON263E1nvGwiozTGmfGa40L2Wc9Ti0PvzCBYN3Y6ypSvFzn7aky/sdWUlsLE4+crkg6nGSgzpPhjMFZTZToEPPBafpxaMYnYj64YIwYg6D3hsXBhZkYo2h0cR9vdyrp7roNYHagRV3v7PPUffP6AnD7YOifdN6RDdE9jgYXZ8N23gEmhgUXRzrWCivrsgO4GBrG4DH8zwh0i+KsLk2UAwRwniTUOICL0MgWDc4BXJgGFwY8B3ARnqHgJgdwwbro0VIkaHVnmxVqPVlWmpgq7VqJ2t5Z6WhwNuDZMp503paxaW5yXrfwYwm3gDD3pMfR4OQLGAo4Q/sCjgYXaqYMgVxUwNHMyfHK/YBxqEd93GA+yQFcnK3XeQcYmwbH83sCNnWOHVwO4AD0VIOLGW5s23BodWdbAG4EnQM4y1voAC4EYNFMmDEBjuEUBxzAWZ4yZzHGGuC0JvFIvIC0A66768NegwuDWnzgih1y8geQAB3H51zpQqwxclwe1plM0AFHg+tCeyP8HMB12VM7GlyX1RN9Zzxwk3N+xa7pRYJhd4FmPz4UcNWAcQ462qBRETKjkqLXwlU6ojfG4AY04NJQlpM0fJMtO4DrhTE4migdDe4q9VCD/2MHKuCUk4odaPZ1B3D2Hxj9rcHRC5ZmyjRTg0sTuS3ZLvSuFIDzTMJLlQ8A/kbAuAKg1SI06Q2lP8dE2S0TpfKW7KyEFXBHhtKDEtO9OBpcTNXU+UGDE3DKwYFxcDLFVKV7Cg68WgkYnwNogQbd0eDiHGfr2lypTJQWwKkclYSbCbjK7CSU5k3CK+X3A77PAF0BrtmEnAO4uF39O4NDLNs7MxHGuj3aGFu0/V19R3GuFXCOk0nnPbmzJ2INDDzASXgpDa7ak4RwSQGTA/OYjd4E1LpHo9qdjkOvlgLGWQBN0B3Axe1IEglwTMYsRToXiXYSbZQmJzv1pkHO35eCjZ401M9KwsY5k/BG8f1A22eAJgFnoBmG0OQcwA0pwClgKbCp9c5KdZytVPGCMmicJsr90tEkYi82dDc6GlycbTtQAWc3RUYCHo8h4Ko9EnAHflsMGGcAXIYOv4gti7N6+vb0wT4G5zYD8S1OJpxTTkmDOw0NM5NQLwD3ANDWaAFcKwy0D/RR0h60/zA3USqQ2YDVtdlyB4BQMbADFAk4ldbs4x60x+A+xQFcnO030ABX5x6PgHjGoi4gCajzJKDeHRTu43xxZZ5klHmz8MlvywFQg3MAF0n76q1t4plxJaKWc8m5k1DnSkNdXoaQBlc6lDzmSkfdrBRUzZ2MLSU/B9rPAXozYLQHZeD/DOnmGza8Aac0L1lKSClYRS63wcA2ANs7EUKOnph7AGZ+GWZ/DuDibPABC7gA2BTkwgFX4xmL8nlpKPJmotg7Ax+9Vg3gc+jCROlocL0FNOt1As8LAZeXjDpXCuoIsrwsIQ2uSWhwZZgyCZVz0lGaOx2vlP0C6DgP6O2ArgGGT5ZxPr8D73QHcLHDLQhAgImVI4kKM3AAN/Ce9UHwjQIdVg/j4SK5/ndnm90UGWmdwd+VuWNQkZMgclNuzE8WuSrXzRmNiqUzULTkZlT89A784alCAAwT4Bhcx8A3f/WGidJtyWQSFjJg97CMtB6f1+WaH49E8cxEVMyZhPLZmajOzUJ1bibq3JNR456KNXen4tG8G/Fs2QoYVxoF1AzBAAPQRQUMgrekO19xiABOmRqjldiFUK0t2jpzcBJW1nnwOMYmhTMuBIXHUGujfGRKd9pi8B/raHBxtuFABhydS0rdKSh2pWJDXgoKc5NRMS8Ta2aPxdo541C2YCpW5k/D0lmTsKrgh3j35Y0ALkJHCzAcAUfYdRtyPQdceW4yinPTUJyXiZK8qSjOnSbLvCysm5OO1TNT8UjOJNw/awo2Fa8QOTcNw4AAnApUHHKMG16A6xpuMqG0nOqG093IKW/ktDfKaeSA6TwiM5UYOISgcB8TLFMOmhJnhzfITncAF2eD9RvglKZh64AjaWxqW4UnGWtdGVjtnow13qlYWzANJUu+i+fX5eFPm5bj7cd/gW1bKrH99Qbsfv0pnD9GcwbH3wg4//DT4HoBcBxXo1jNkpGXU1HhnoCKJTdg+d3j8cCdqSha8H38tmwh3mq4D7uefxj7t5Tgw9dKsPf3DThzZBfa25qgGYBGBhBwbCIHcFd3RoHOwgGiaW7mfjvgNOwCxcBuUxM7AANHYBjHQgT4FEKMUwAFpwF8ZhNuO2kKlynD688BXJzt3d+Aq3WNg1U4jkahl2SlNwkV+Skoy09DSX46CgumoWrFbLz82Eoc2/kS9HN7AO0E0HYE0PhSnAfQCLTzwVdxVS0ik4kDuEjmyEjbrBoc4abaxwSdCU2GBpR5UlHqmYBibyaKvFniB8dvqpdh3zub4WvcCTQdBL78AGj6GNCOmQ4/p4AWdmb0mEQo4Ai5Ifc3xDQ44eChHD3M8bAA3KS5UTd2Q4j+gcW8+DEMHIChn4ShfwZDawwR6HQ4MkXj2OxFwLCIflmu40sgIBeG3NMS7YYcwEWroSj74wectYOMtCw7VdVx1uWNQ51rDOrzxqAm93pU5Hwb5a7rUeoZjzW5iShcPB3FP/shnihegA/e+RWgc9zGfAHES3AJ0ClXzKwY1NbapEnSoEqgNDezo6GG0JVEqZ8+3S20F/nlVLcoPq/LZMv22b0tY3BKS46lNDXpKnciKMq0GWgntpE7QYRhVLpHoWpBGh71pKDw3ptRvGImXn+xCG0XaWa6KOIOGVzfubB96PTDf5B+k+Le+7R2r9LF1R3q0lNUPzewZxPoSlMTcHsPwFYYeE94O0pPSGpoe6BhD/zGB/AbH0LDR2LOO+AwgKMAjsuQHe0i4G8JiK61gGLobQGBxnnzfNLxiM5HIWLxuKX37TD7cwAXZ4P3H+CkdiAAR8jljUNN3lhUuRJQ5k1EUf4EPOzNwJMbCnD0g5cA/VP42k4LhxE/2qCEsVMGfFIMlW2SnYrtryuoWffZTuvXVdHJyy+jukXx+VcBcFbIEXYEHZ17ynIl3NZ70/FMkQsHtz8LfzM7sTY0tX0RiDdU37/zMgi3CK3Vr9Xetx9mqQF2yIMacNTctgJ4JwA4aYIk3PZCwz6ppYEZRgi1TyXUmGxB/xwQcGsDfFpAdL8GiqHpISIcjuh0FE36tvEG3NUdwMXZJH0HOKW5maYuy7hOlUuO35R5JuCROeOxzjMRL5cU4OT7TwItnwC+E8IbErgEQ2+BrncERMDN0GCY0qV2ZgVZZ8tx1l9cp19NwCktj9MdCS0uGRzzrHCngu1CKfVMRP2930dR/nex+4US+E8x+/sFwGiBr70ZFy/SROz8hdbAEAFcIFCbkKM7v9LaPoKB/cIRRGhpYlzsC9OMSBMiM9WYwwUiFITQMtX2SGVo5XVtbRHvi/2Eob3uAC7O9u0/wCWDYCtzT0SxJwtF3ilY770BD87OwGu1D+DKwTeAjuNA+ymg9QyMjnMiVyFNGbruF2Jofhk7Zf2V1xm4Yt0eZ/3FdfoAANzG/FRU5IwVcCPU1PhaoWifm/DcmntxZd+7QHMj8OUZoIPmRvnX3jYkB9HU7fWwtPTig1mDI+CE+XIvoJvej/on0PTD0PSj0LRPofll1qAA0DjOquIbxTvaBdhUNdlrOdp7az9+iK87gIuzgfsOcMky04UwR1Kbk3CrXPQdrHZNR+XP7sKaxbdjx5bHgQs0eV0EWhsB/0VAawJ0006v+QOmDPh100vBMhdOtBci2v446y+u0wOAs12lWyZK+5hcbOu1rjHCDPlYQQpKZo9CUfY4PPHArXjUNRkrsidhpfd7eOvpEqD9EtDeDrT7gA5NDnFaLcPW+u3yp7rq0eyl7d4H/arl/gYx4DjGZmAvDP0TGPphGNpxATXGmUrnLjX2yh88PvOFNLU1Ph9KRHV0YXoc9O3dtzfgAC7O+u0fwI0T2hs1t1/MysCqglvx6LLZaDr9ITounjEH4zmFih/Q2sBBZ2prUnQEfEfoP6JeHFVaO9ieLMdZf/GfLigXepl+AxwhNwaVueOwYW4iHslOxUO5k7Fu2Z346J3ngCunAR/BZvZhyoeHda/6cVXngQ1qR6xl6K0P/jXLfQ92wDFuTTsKw38Kmv8sND9n6mgynYlMxy7h1GU6dvFZ4O3z+Qh5VhzA9fS5dgDX05ozz+trwNFbkg4ljJmi2at46W2oX7sU/gtHAN9l8S3EO8EXgu+HFi4EnBIHcLFpaNXu6MfV5CWgNjdBaHJVBZkoWzgDj61yo/HA2zCaTkJrpfcqG8QGNOs6lxm5HauEXIzn2bxc5WMwiP+3VA4BZ5yHYZwwnTGYrYPTv1BkAmGpKUl3e5Hhoyuvxjj22T/Hvh6aWYTu/nQk2QdNOwXNdw6a7zz8PmptZoYg1W4BkvG+bW0ZOGYQN+dV/uoO4OJsAI6LUWhCZECvAB6T6OYFRQX/Ri3zVJhA8Jp1ucmozpuAUncW1npvwhuPrwWaGcNGonWgpYMzt8k/vg8dOoQlktZIO+yEJqc0N1Wql6inZZz1F//p/OK2P70dTWcOoXqFR4yJVXnGIZLEArEqz5iI56rr1RekoDQ3CZvvuxVvNjyIiwffwcWTHwNt8scHucXgbMUv8U3FV+4G1AInWzp/BTp7u9mqYvCtWu5RAY6xYAx2FlO+EGxByIWDRuVeDI05C51SZy9gUPZEF9NZJBiQrWC6V5ogaYYUqbCYqT+YXUQzDsrwBsKt4zL8vib4O1oi/CDh/ZoanGose5tGeMTVoU7ZdQ04gOu6fqLuLc+fjA15aajwpmPz4qmoyR2P2tyxIk6twTUWlHr3WNS7xgsRmf495jZ3AhpcSnhMEoruTsCmhdNQ6srAo3cloXR2FlbeloqKhT/God8/BWjnAIOdZxs0+IX1nhZ8Jfx9GLBuMOuFRVQ/aS3DbjDSy9XVtrAL9PeG0Le/neNd9ElrPIPKR+7Dunk3YPWskSJOsCI/CRWexIAoSMmSIAvV2rhe4RknjmcoBqV6fhqq5qWiZnE6NrjGY+Xdo1E0bzq2PrUKOL8PaDsnHUnYCPwRYVHeVNctt5q/1hWoelwGrjZEFlQtyTg4w7gM3WACcP6oOwoDDIBmlo/tMLATBlRwtAIfEw5bM+sHtT2VrxEgjCjBHI52DUyu81zrtXhtbuN56hom1IwjgH4C0M/Kd5TekEaraTqJoGmrd2qItNpAvQ0HcHG2zLE/VODZ1dl4eG4qijzpqJ6fgbIcOUvzr5ZMDJmeRoCOsDOnrGlwj8Im1ygBOQKwxp2CCtdErJ2ditrFt2Dl3RlYn30Tdmxaj44DW4ELxwGNcGO2kQ74OgGcFXJ22FnhxuWwP/XixVqGXaC/N6gvKj+3tbUVhJzP58PZE/vwu/oVWO3JQNGCKSiZN0lkeGFGEbr0C/d+TzDQWwVpW0vCj1DklEKl3lRULsxC0fxJ4noPuyfiydWzcXr700DbIaD9DOBrBvymM4lZv5YuO4CxYC1F2tudbcErDY2l4L2LkBYR5nIxADmpyRFyBBuFy3S7Z0nwEHQKcgpI3EaxAk0tq32RSivgeC11DcJN5n6EApt2GvB/AfgvAz6Og1sUM96Sekzt5dBotAF7Fw7g4m0aPzu2/Tjy500oX34bHpyTgkdcE2RnypmavZyuZhTqKSEam9TcCD3OCVbtSUOFJwsb8rJQvuhmPDQrC+X33IGWvW8DjYcA2u+bGfwpB6kJOGpwNFAqa6N8pwz4YRep1Vm1ObUcdvv2FzDaetgF+nuD+oLBz9X8GijUa/Urx9F8+j08U7oUD7mmYn1BFkryMwTgGJBNU3J9rpTHchJhlfpcmTVGBGx7klHsnYhfZqdhw5LvY+WCW/DWc2uBC7tlWq3WY0AzO7lWmSxSdWoRNLhgFx46PNeT7cG7HipLwVpgrCbd5hnqAjF7+SUYaISBk9BxVIjK0SgDpelNzMTC+8zM+cyibwUXgUUhrJSobV2VvAavyWvLTCPic/WTgArKZrYg/vhkVpHAr0ob2IZKEw2i+3AAF29jdZwAfCcB/3GgZR8+fLMOFQ/ehXvvSsKj3kyUFKSgooC5ImXOSAKtwTVeCE2SNW6CLQMl3inYkD8Dq3Kno3jp7dj+QjlaDm+TvwiNDsDXAu08MxzwZW8TGpwWAXLhcAvCToMBu4TdvuJFrGXYBfp7g/yi7BZ5b7qum3CTHjcc/xAD+/o5tJ3ejidW56HQO01M8FrlmoC63Amoz0mNKHW5qWJMlWOspZ5MrM+fhuXZU/Bk0X1oPfsR0PEZ4D8NGI1AG5cvAzrTJlk6Ngdw3XwgrICT3oPM2iHnwGsHTZYGzpsa3VmZp1H/zJyJnmbM42ZWEIKIGfStpkiCimCzmh0JNgVBpdVZSzWuZqbPoqnUOGPmh/zCzDbSJFNp+Uy4cbxAQU49C92sBefw3qkBB3Bx1qPGpKYi+8BloOMs0HQM6PgUJ3a/iqqH5qB42U2oWf4dlCzIxC/vuh5r7kpA6exE1GRPQEV2Oirm3YjCghlYN/9mVP18Nna8Woe2U7uBS3xR2wHx0pieI7rpDokOAThqcXogR6HMVBjt/6i3GyvY1HFRL9h/B3AqGf6JKWU4rYxhCNYI4hhtMiGt1ojWA2/i/8qXocQzAw0LbkGNezpqPTfg8UW3oGR2BsqyJ6EqdwqqPNNRlJ2JYvc0VCz5EZ4tXIam47uk+z/a0NrypTl3HrVqjreYk5EG++jAzVs39eZy4AOGzIKqHfOG1Koo6a3DXIscZ+UPPZW/s8lMNEyv1c8BnaEzBBGTVBNMVs2OWh0dUDgLNrOMcJ40+5QyamoZnseckBJq4trGefOzOLM6tXVCzW96dlnA5gBuQDyRDuDibAafpgnNgT/ZjHbCrhXwXwJ8XwKXDuD88S340ysPo3rVT1B+/61Y75mKUvc0bCy4GU8tuxP1y+/G7+oexJndrwAXPjE9JKkJsNO0xK3xBRf9Nxf49ijIMQmvSsQbDW88N8qfAlesZZTLXY3dCnDCDBvw9aAW0AFcbgSunAHaG4GTu/DB8yX49SNeFM27BRsKbsZa93dQUnALKhb9ENX33oGXNizDx1s2A+ePmDFMaoRTKmp09WmFX+jS1CBFLkBaR0WHrNosuKo291Z5Neq3bz9T1Yz5KWo1ULKOVQVb4l8Y/6kzKTHNhDQXMtM+YXfWnE6GPxgJLJoaFeQ4cehhkbeVuVtDhHAk2EROSF7LNEHyM8RnadKDS4GMpVVz41dUX1P+7urbanOuHrEGHMBFrJbYN2r8Qake5lY+5Uwl1wQ0EXZt8PuPwcAxdLR8jP3bnsO2lyrw/tNFOPxKPS7veA1oPwFcPgS0MH/kJeEhqXUwXkaTbv7slyl8r81+UwJOmiplXI31LetqWV3BUsYKss6Oi72q+u1IqyMN71T88fsHVoSaB7RfBNo+BToO4+LxP2HHG/V4fuMKvP9aDb489CbQdFSOferUzHxAeyt8zc3Q2gk5+Ucd4pKZPZBbCdVAQ/HzuG7bZKn9kEN7sl1efSj9b6sFFeuinj9rjVnrWg0q+6lR0cmDIKLp0AQeQSU0MWp01NhMzY3anv9cuBCQBCXP9zcFEihIt2QTXnzV1LvPuJxApiDzhw5f2sD3HkptNHjuxQHc4Gkr55s6NeDUgFMDTg10owYcwHWjspxDnRpwasCpAacGBk8NOIAbPG3lfFOnBpwacGrAqYFu1MD/A/SZ3j42ja2vAAAAAElFTkSuQmCC;" vertex="1" parent="1">
          <mxGeometry x="40" y="410" width="440" height="220" as="geometry" />
        </mxCell>
        <mxCell id="ZKgTmK-BCxke4X23e9xm-4" value="&#xa;&#xa;&lt;p style=&quot;box-sizing: border-box; margin: 1em 0px; display: block; color: rgb(61, 61, 78); font-family: &amp;quot;droid serif&amp;quot;, georgia, serif; font-size: 18px; font-style: normal; font-weight: 400; letter-spacing: normal; text-indent: 0px; text-transform: none; word-spacing: 0px; background-color: rgb(255, 255, 255);&quot;&gt;A&lt;span&gt;&amp;nbsp;&lt;/span&gt;&lt;strong style=&quot;box-sizing: border-box ; font-weight: 700 ; font-family: &amp;quot;droid serif&amp;quot; , &amp;quot;georgia&amp;quot; , serif&quot;&gt;python package&lt;/strong&gt;&lt;span&gt;&amp;nbsp;&lt;/span&gt;is a collection of modules. Modules that are related to each other are mainly put in the same package. When a module from an external package is required in a program, that package can be imported and its modules can be put to use.&lt;/p&gt;&lt;blockquote style=&quot;box-sizing: border-box; padding: 1px 20px 16px; margin: 1.5em 0.5em; font-size: 17.5px; border-left: 5px solid rgb(204, 203, 255); overflow-x: scroll; color: rgb(61, 61, 78); font-family: &amp;quot;droid serif&amp;quot;, georgia, serif; font-style: normal; font-weight: 400; letter-spacing: normal; text-indent: 0px; text-transform: none; word-spacing: 0px;&quot;&gt;&lt;p style=&quot;box-sizing: border-box ; margin: 1em 0px 0px ; display: block&quot;&gt;Any Python file, whose name is the module’s name property without the&lt;span&gt;&amp;nbsp;&lt;/span&gt;&lt;strong style=&quot;box-sizing: border-box ; font-weight: 700 ; font-family: &amp;quot;droid serif&amp;quot; , &amp;quot;georgia&amp;quot; , serif&quot;&gt;.py&lt;/strong&gt;&lt;span&gt;&amp;nbsp;&lt;/span&gt;extension, is a&lt;span&gt;&amp;nbsp;&lt;/span&gt;&lt;strong style=&quot;box-sizing: border-box ; font-weight: 700 ; font-family: &amp;quot;droid serif&amp;quot; , &amp;quot;georgia&amp;quot; , serif&quot;&gt;module&lt;/strong&gt;.&lt;/p&gt;&lt;/blockquote&gt;&#xa;&#xa;" style="text;html=1;strokeColor=none;fillColor=none;align=center;verticalAlign=middle;whiteSpace=wrap;rounded=0;" vertex="1" parent="1">
          <mxGeometry x="30" y="660" width="520" height="300" as="geometry" />
        </mxCell>
        <mxCell id="ZKgTmK-BCxke4X23e9xm-5" value="" style="shape=image;verticalLabelPosition=bottom;labelBackgroundColor=#ffffff;verticalAlign=top;aspect=fixed;imageAspect=0;image=data:image/png,iVBORw0KGgoAAAANSUhEUgAAAfMAAAEICAYAAABLWh2RAAAgAElEQVR4Ae2di7MVxZ3H88cllS3ZRNytinGh4npRwCipBDS+QTEXlafC5frWAOJbMLt1j2BMVDDGqAhYgkl0xc0DiEnUDUZMNmxv/ebe35w+M3POmZk7j+6ez6ma6p6Zfvz68+t7v9M9PTNfMvwgAAEIQAACEPCawJe8th7jIQABCEAAAhAwiDmdAAIQgAAEIOA5AcTccwdiPgQgAAEIQAAxpw9AAAIQgAAEPCeAmHvuQMyHAAQgAAEIIOb0AQhAAAIQgIDnBBBzzx2I+RCAAAQgAAHEnD4AAQhAAAIQ8JwAYu65AzEfAhCAAAQggJjTByAAAQhAAAKeE0DMPXcg5kMAAhCAAAQQc/oABCAAAQhAwHMCiLnnDsR8CEAAAhCAAGJOH4AABCAAAQh4TgAx99yBmA8BCEAAAhBAzOkDEIAABCAAAc8JIOaeOxDzIQABCEAAAog5fQACEIAABCDgOQHE3HMHYj4EIAABCEAAMacPQAACEIAABDwngJh77kDMhwAEIAABCCDm9AEIQAACEICA5wQQc88diPkQgAAEIAABxJw+AAEIQAACEPCcAGLuuQMxHwIQgAAEIICY0wcgAAEIQAACnhNAzD13IOZDAAIQgAAEEHP6AAQgAAEIQMBzAoi55w7EfAhAwC0CR4+fMMnt/Q9PxUZKPHle9898djZORwQCRQgg5kVokRYCEAiSwFcuWm182BYuWWdWrX0o3uyLhCAdQ6NyE0DMc6MiIQQgUCWBg2+8a34w9bRZcs12s2BiMrU98uyBKqsbWdb5E5NeiHnyguPIsQ9GtouT3SGAmHfH17QUAk4Q+OJvfzc33/lESryTgt6kmK9a+yBi7kTvwIiyBBDzsuTIBwEIlCKw9YczY4VchN0nMV92+S1GtuTIucj+oktvTpWx6ru3Gt3kfLI8RualumCQmRDzIN1KoyDgJoFjv/5tLiFvW8xNb7uR7dSTW82Rh7ekNjmuaZLh+7vvMrIlj1ex/8q9mwYEHTF3s5+3YRVi3gZ16oRARwnctPkxJ8V89cZHB0TyzLNTtYjxfAVdLizs0Tli3tE/pIxmI+YZUDgEAQhUT+DjT89kCvm9jz5v/vr5F9VXWKDEHU/9dFAkH97ipJg/s2nDoJ0sgCvg5bCTIuZh+5fWQcAZAs8fPJIS84nvT5l/nDvXuo2+iPmOdXcg5q33FjcNQMzd9AtWQSA4Att29FJivuOZl5xoJ2LuhBswYh4EEPN5wCMrBCCQn8B16x9Jiflrh3+dv4AaUybFXKaz53t/u478jMxr7ASeF42Ye+5AzIeALwS+tWprSsw//N1HTpg/vaM3MH0tolmHGM+3TMTcie7ipBGIuZNuwSgIhEfg/KW3p8T8oz//jxMNTb40BjF3wi0YUYAAYl4AFkkhAIHyBP55SfqVrW2vYtfWLF6xeWBkzjS7kiH0hQBi7ounsBMCnhNIvq5V9l352c9uS7yul74wze6Kx8OzAzEPz6e0CAJOEvBJzEe94S0pyEce2mw23LAueltc8lxy/8zebQP34t9/5C4jx5LHk/l0P/mc+TO9V530NUY1TwAxb545NUKgkwRcFvNFKwZfkyqvTVUBHRXKe9OTo/rl314bH1t86S1m4cVr4n1JK/uSz06347Z8C+6Sb4CTVfj8ICAEEHP6AQQg0AgBl8W87AK49TesM+d/a020JUW9yH5eMZcZA7tcxLyRrutFJYi5F27CSAj4TyBEMZfpcZkql9G7jOZFlEXgp2+5PRp9y5fO9KtnclzOyzk5vvrqSbN/68Zoej7vNLvUY4u5vFOeHwSEAGJOP4AABBoh4JOY551mHzUFX9c5mQlQQZcZBX4QEAKIOf0AAhBohIDLYp58NE3uTdclxvMt175P75qYn56ZmnuXwC7zdoFe9fa2uccWtx0tkIukNgHE3KZBHAIQqI2Ay2KuI10NfRHz5ddO1+avMgU7I+aHdpW6qCjTZlfyIOaueAI7IBA4AcR8eyWjfXtkLhcfLv3aFvN+/fqComIzBC6xLGoLYl6UGOkhAIFSBBDzNsT8qJmamBW2qUP9uPhi6pAx5mTPrJw7v2BiysyctF07mF7yrJw5bSdI5FcBlXBORK3yo/okdzxq7teXOc1u5dW+E5cxaEVqry/qiHkKDgcgAAEIzIeA/kO2w/mUV2VenV7X8MyzU5WMoud7fzwrv6yKVzvHj8xtQZ4TtlhMJ82C63tG5Dktpv18KqB50qRE1BJkLSeXmKuNc/YZo/b0LwBG+T9lx6jEgZxjZB6II2kGBFwnYIu4xl2x2RbHSCB71Yyis8R4vseKTbOrCM6NxAW4CqU1Eo/Fb048k/uRnxL54jQ6CjfGpI6VEvPTZub62VG+PROgFxP2sWH9J2XHsIQBHUfMA3ImTYGAywRUwO3QFXsR87lV6MmRejwytqfkZ0fHKq46uhdfpkS0lJj3L0DsvqJxxDz7rwYxz+bCUQhAoGIC+s/YDiuuonRxiPmgmMeibIv5sJG5lSbOp6P1UmKePTIv4tyUHUUye5oWMffUcZgNAd8I2CKucVfagJgPinn/HnV/ej4eieuz4LFQ9+9jp0W0P8qOR9SJiwLpA6myM9JIOik/LmdE50nbMSJxIKcQ80AcSTMg4DoBFXA7dMVmn8R8x7o7Si2AG7UALRY/a5RtC7r6LCWksejaK9mt1ezi4KFp+hcBKTGXfPHFwmDZKRusThS3I16hr3nDX9WOmFsdgSgEIFAfARUEO6yvtmIllxVzee3rmu9PRl9Cm157mzn68JboXe37t200P7tncxSXT6TK8T2bNkSbxOVd7PLRlJ23rY+2Iq+PLSbmxTiQ2l8CiLm/vsNyCHhFwBZxjbvSgLJinlxZniwn776Uk3eVO2LuSq9xyw7E3C1/YA0EgiWgAm6HrjQ2Kbp5hVW/jiah/QGUZHnD9iWPfD3tmU3rEXNXOoOndiDmnjoOsyHgGwFbxDXuShvOn5gcuA9d9t3sMnUun0SVqXX5vKmItMRlk3NykSChnCsytW5fXIhtenEgdvODgBBAzOkHEIBAIwRUwO2wkYpzVCJfH1OBlLCsmNuiW1fcFnPXvpqWAzVJaiKAmNcElmIhAIFBAraIa3wwRXt7STF3+XWusrhOLzwQ8/b6jGs1I+aueQR7IBAoARVwO3SlqUkxr2tUXUW59gI4xNyVHtS+HYh5+z7AAgh0goAt4hp3peGIuSuewI6yBBDzsuTIBwEIFCKgAm6HhQqoMbFPYs498xo7gsdFI+YeOw/TIeATAVvENe6K/Yi5K57AjrIEEPOy5MgHAQgUIqACboeFCqgx8Y6nfhovKpPFZS4vgGNkXmNH8LhoxNxj52E6BHwiYIu4xl2xPynmPJrmimewIy8BxDwvKdJBAALzIqACbofzKrDCzD6JubxshkfTKnR+IEUh5oE4kmZAwHUCtohr3BWby4q5vtWtikfO8pbBo2mu9Bq37EDM3fIH1kAgWAIq4HboSmPXT++JR7s66i0SLv/2WrPhhnVm5+3ro23/tk2zX1DbfVf0+lb5Upqck1A2OS/p5QMrWZuklRG4pJH08sW1xZfeEm1Sl9rGc+au9KD27UDM2/cBFkCgEwRsEde4Kw1PrmZXsXQ9XL3xUVcQYkfLBBDzlh1A9RDoCgEVcDt0pe0+ivmZz866gg87HCCAmDvgBEyAQBcI2CKucVfavf+lt4zcN5dNptxF3MdtyS+tVTWKl3Ltuqd39KJ9KV+Oy2j8md6rrqDDDkcIIOaOOAIzIBA6ARVwOwylzac++sQcOfZBtA27MFCRFnEWMZb0cvEg6d//8FS0LyE/CJQhgJiXoUYeCECgMAFbxDVeuBAyQAACmQQQ80wsHIQABKomoAJuh1XXQXkQ6CoBxLyrnqfdEGiYgC3iGm/YBKqDQLAEEPNgXUvDIOAWARVwO3TLQqyBgL8EEHN/fYflEPCKgC3iGveqARgLAYcJIOYOOwfTIBASARVwOwypfbQFAm0SQMzbpE/dEOgIgc/P/s3YIi7xf1l+R0daTzMhUD8BxLx+xtQAgc4T+PjTMykxv+g7WzrPBQAQqIoAYl4VScqBQEsE5IUlR4+fiDZXX/H5+z98nBLzy2+8tyViVAuB8Agg5uH5lBZ1gMDP3njXbLh7j1m8YnP8BS19nejCJevMqrUPmZ1Pv2j29H4eibwIfpu/Q+/8V0rMb77ziTZNom4IBEUAMQ/KnTQmVALymk8R8OmdvUwBVyEfForAr9nU3he2dv/oQErM735kX6juol0QaJwAYt44ciqEwHAC8r5uGXHLyFq25ddOp0bewwR73PFl12wfXnGNZ/5x7py55OqplJj/+JWjNdZK0RDoFgHEvFv+prWOEZB73PtfPhxNiVcp3FnC3saXtv76+RdGRuDJleyyL4vi+EEAAtUQQMyr4UgpEChMQEbhWfe8s4S4yDH5OlfW5znrvm/+4s/fMctuuCdTuJNifu0duwrzIgMEIDCcAGI+nA1nIFALAbn/LVPpRQQ6K+2iFZuib2/LJzRl1C2bCraEssnIXz6zKd/ArvP3hz99mkvEVdQPvvFuneZQNgQ6RwAx75zLaXCbBGQBW5YwFzkmo275JrZLv9ePvldIzF899EuXzMcWCHhPADH33oU0wAcCMkouck98/fSeaEQtoi15ZTQv0/ISd/F36o+fFBLz7936kIvNwCYIeEsAMffWdRjuCwF51lseDcsz+hYRf+WN4740bcDOx//zldz3zGW6XV7xyg8CEKiGAGJeDUdKgUCKgNyvlme7x4m43PuW+9qujrpTDStxYPuu51Ij918cea9ESdVm0Tfn6RMF8qKdqjbxvayNyCpPHz3UUNLa6fRlP/JuAfu47KvNIfeXar3cjdIQ8274mVY2TEBG13lG4zISd/UVrFUim3nxUErMH3j8hSqrKFXWuAstH86XajiZgiOAmAfnUhrUNgG5vz1KBGQB26q1DxpZhd6V3+HjJ1Ji7sLrXOVFOqN85cO5rvQh2jmaAGI+mg9nIVCIgAj5uBF5Gy9vKdSIGhJ/+LuPUmL+/dt21lBTsSLlosoHwR5lY7EWkzpUAoh5qJ6lXY0TkOnycS+B6aKQiyNO/zH9HPoVq+9v3EfJCpNi/rUrt5jzlt4xVuC/+q1bzQWrtkfbN9bsjELJq6Jrn9d040Ipxy5L0l902xNm8aa90abntA4Nk21iv5sEEPNu+p1WV0xARuSjFrvJIjd5tKyrv0//8tfUyFze1972LzmLctXB/zaubyriGrbNkPrdIICYu+EHrPCYgKxI1n+sWaEscuv67+wXf0+J+YVXbmodS3Jk/p3eMcS8da9gQBkCiHkZauSBwBwBeaQsS8D1mLz0pQur1fN0CH2Vqx3myVdnmqSYL3/8NafF/Iq9h1P9rU4+lO0PAcTcH19hqWMEZDW6inZWWPf70B3DMdYcW8Q1PjZTzQmSF2Oui7nYl+xrNSOieE8IIOaeOAoz3SIwTsjl8TNG5IM+UwG3w8EUze8lxfyynQecHpkj5s33EV9qRMx98RR2OkNAXgiTHB3Z+3KPXBbE8RskYIu4xgdTNL+XFHNZOe7yAjjEvPk+4kuNiLkvnsJOJwjIaDu5AtoWcokzIs92lQq4HWanbO6o3Aqx/YeYN8eemqolgJhXy5PSAiAwalQ9auW6TK37+pGUJtxmi7jGm6h3VB3JL9kh5qNocc5lAoi5y97BtkYIyAcr5MMW8py4jLplyxJleU7cHsUl4116PWsZx6iA22GZcqrMk/QhYj4/uqdnpuYeQdxl3i5Q1NvbJmfzbTtaIBdJbQKIuU2DeCcJJB9Pkn/wIujytSp7ynzUqLzLL4TJ22lsEdd43rx1pUuKeZkFcN/98a+NbE3ca3f9nnnrYn5oV+p9Bgs6coGAmNf1X4JyvSEgz4In/6nLvry1TcV81Op1RuT5XK0Cbof5ctaXKun3IoK8YuYdc9HtT5ivXvwDc97SDWbx5mfNJfe/YC7bcSCKy/7yx38+sC/HLp7qGckrFwCyv3DV3VEox8bVj5iP7gvRCD8W79Nm5vrujPgR89F9g7MdIZC1Qt1+c1vy3qqKgAg+v3wEbBHXeL6c9aVSP2pYZGQuQq35qgilvHFiLueTdY2eFTpqpiZmBW3qUD8u/KcOGWNO9szKufMLJqbMzEmb9WB6ybNy5rSdIJF/Tjij8uam2a3yo/okdzx67teXOc1u5dX+EpcxaEW89/ZMz9gWlp0piAv0KIKYe+QsTK2PQJZYy1S73E/fcPee1D9Q+YcqC95GLZarz1o/S9Z/yHbYdkuSwljknvkVe98yX7vyTnPe0vXmglXTmX0kWX7WvozsJX9eMU9+CCavmC+YmBPYWEwnzYLrZ8UvLaZ9IVcBzZMmJZ6WIGs5ucRcbZyzzxi1p38BkKfvxDbH5eTJ5WcaxNxPv2F1xQSSjyjpP93rbts59J/06H+iFRsYQHG2iGu87WapnzWUr5TlGR1npRExvnTny9EmcbkwsL96JufkuGwXT82Yf73uwXi6Pau8Ycfka2pqr4Sj+6GK4NxIXICrUFoj8ViE50QvuR/5KZEvTqMXCfJ1vOQCuFJi3p8et2cCVJjtYyP7j1V3F+6bI+YjewMnu0JA/iHa/yA1/k+LbjZf+ebq1Dmm14v3DBVwOyxeSrU51M8azkfMh4lv1cflU6hqr4Ty4pvhv3JirsKpI/eo/FgcZ0fHWWmqEfO+zXZf0Xg+MbfLKLayfjhLt88g5m77B+saJDBsdG7/45Q4z5OXc4r+M7bDciVVlyvp2yLT7FWLdN7yxEbb7jrEPBZle3p62MjcShPn09F6fAEwemYgvjCIFq9lj8zze717Qi5sEPP8PYSUgRNYvGLzwD9J/Yf55YsGR+a6wl1wSFzuq/MbT8AWcY2Pz1VvCvWxhhdv75WeZs8rxvNN14SY9+9R90V4UHDtxXP9+9gpMY/vdVuL5xIXBeLhVNkZaSSdlD9yZG5dPAzMKtTbjZwoHTF3wg0Y4QKBYY+fqZjL1LoseJOV7zIakvSyOE4XyrnQBpdtUAG3w7btVRHXUB79mq/Y1p0/Keb2Uxdpnv1R6qgFaLEIW6NsW9DVZykhjUXXXskucWtqe2ia/kVASsylIbYwxyvurYuCVGP7bVV77TBufypfGAcQ8zD8SCsqIJD1eFr0T37unvn0zp7JWvUuaeTFM/xGE7D/sWp8dI56z8qMioq4hj6OzOl79fYTX0pHzH3xFHbWSkCmy7OF+qbMBXD6z19DGZ3zG01ABdwOR+eo92zWokcfxDz54hjEvN5+4kvpiLkvnsLOWgnIqHzwta43mS9nrGJX8c4KazUwgMJtEdd4m83KEnMfptkR8zZ7jbt1I+bu+gbLGibwTO9Vo/fHs8Q665jcR5fV7fJKWH6jCaiA2+HoHPWe9VXM5S11dl9kZF5vP/GldMTcF09hZ60EZGGb/Q9yXFweY+Ptb8VcYou4xouVUG1qX8U8uQAOMa+2X/haGmLuq+ewuzICw++Xzz6SJqNv2WTVsAg4Il4OvQq4HZYrqZpciHk1HCnFDQKIuRt+wIoWCQz7apqMvuUfPr9qCNgirvFqSi5Xiq9izjR7OX+HngsxD93DtC83Afnnrpv9YpjcBZBwJAEVcDscmaHmk1lifsXew7mfM5dPmMp71uUzqN+4eZeRD6/oM+YST37jXPb106eaTvaXP/FaKq2ezwpZAFdzx/C0eMTcU8dhNgR8I2CLuMbbbEOWmGeJ57BjIuTJtRXyBTTZ9HhyX49/fcVd0XfMdV9CKW9YXfZxxLzNXuNu3Yi5u77BMggERUAF3A7bbGDWS2Ns0RwXt8XcFnBboIvE84r5d3rH4osFKZ8FcG32InfqRszd8QWWQCBoAraIa7ztBifFtug0u0yT6yarzOWzpjLlLt8nl++c67fOZV/OySZfZpPvoEvdEp+478fRqFzKGXcBoedtuxHztnuRG/Uj5m74ASsgEDwBFXA7bLvRtihK3IeXxoig23Yj5m33IjfqR8zd8ANWQCB4AraIa7ztRtui6JOYn7f0jljQR38CtW3C1N8UAcS8KdLUA4GOE1ABt8O2kfgq5gsuW4+Yt915HKsfMXfMIZgDgVAJ2CKu8bbb6quY23YzMm+7F7lRP2Luhh+wAgLBE1ABt8O2G22LosR1gZnLoSzSs+1GzNvuRW7Uj5i74QesgEDwBGwR13jbjbZF0RcxTy6AQ8zb7kVu1I+Yu+EHrIBA8ARUwO2w7UbLSnBb0F0ekdu2XbBqe2w3Yt52L3KjfsTcDT9gBQSCJ2CLuMbbbnRSzIs8Z26La9NxxLztnuNe/Yi5ez7BIggESUAF3A7bbmhSzH15zhwxb7vnuFc/Yu6eT7AIAkESsEVc4203FDFv2wPUXxUBxLwqkpQDAQiMJKACbocjMzRw0lcx5znzBjqHZ1Ug5p45DHMh4CsBW8Q13nZbfBVze9EeC+Da7kVu1I+Yu+EHrIBA8ARUwO2w7UYnxVxEUka9C1dND92+vmL2IymSVuIX3rzTLN78rJl44Cdm+RO/iLbvvfDewDPrctxeXHfZzoNRHsmX3KQ8uXcvZUiZsrhOvpQm6cSui257PF7JLjbsf+mttjFSvwMEEHMHnOCCCWc+O2uWXzttFq/YbFatfSgKFy5ZF8VlP5RN2ifteuWN4y5g75QNtohrvG0A0hfsUW7V8fl8GjVvXkbmbfciN+pHzN3wQ+tWyD+Eqv+RuVyejMj4NUvggmV3GBVxDT8/+7dmjUjU5nIfHWfbxA33miPHPjByIc4PAog5fSAioGK+9Kqt5qm9L5gDB143h948Gm0Sf/iRmfiYxHXTtLKv6TWUc7LpvoSa77l9B41ssq9p7DLkmJy382p++5ik0zLt/BLXNqj9Up60T/5JMpppvuN/c8XmlJh//OmZ5g2xahwnmC6f373vdaslRLtOADHveg+Ya7+K+co195j//cufg92m7t+DmLfU55ddf09KzH//h49bsmZ4tac++iQa8cqod9Qmt2rk70a26R09I7M9si27pv92tqyLgfMnJuO0mkfKkPj66T3RLSCtV2yRn4Ryb1yO84NAFgHEPItKB491RczlYoWReTsd/KbNj6XE/K13whan5IUBU+Lt9L0u1IqYd8HLOdqImOeARJJ5EZja2UuJ+WP/cXBeZZIZAhCYJYCY0xMiAirmi67YGOwUu9w+YGTeXofff+BwSsyXXne3+ce5c+0ZRc0QCIQAYh6II+fbDBVzmYIO+Z45Yj7fnlI+/58+/ktKzGVV+32PPW/aXtVevlXkhIAbBBBzN/xQixVyf+7o8RNm59Mvxtv+lw8b2exjEl95y0Pxo2khi/mNt/+Qe+a19LZ8hV61bkemoOujanb4yLMH8hVKKghAwCDmAXcCe7SdtarWPvblb67uhJjLI2ssgGuv07/8i2OIeXv4qTlgAoh5wM6VR11EuC68fKP59g33Rdu/f2/bwL4ev/DyDYh5wH3BlaadO/d/5oaNu3MJOiNzV7yGHT4QQMx98FJJG1dvfDQS6C0P7DPv/eazkZukEeEP/TlzptlLdqYKs5394u/m5jufGCvoiHmF0CkqeAKIecAu1ml2GX3nFfOFE5MsgAu4T7jUtIOvHzc/mHraLLlme6awI+YueQtbXCeAmLvuoXnYV0bMZXQe8gI4VrPPo0ORFQIQcJYAYu6sa+ZvWFNi/smpk2bhksn4nrtcENS9SX2/PPbLwhceiPn8+xUlQAAC7hFAzN3zSWUWNSXmv/3gRO3inXVxgJhX1lUoCAIQ8JwAYu65A0eZr2J+44Ync98zLzvNLqPzQ28caWyT+srcDmBkPqrHcA4CEPCVAGLuq+dy2K1inmcBnKTR0W8ZkfQlD2Keo+OQBAIQ8I4AYu6dy/IbrGK+6tadY0fmiHl+rqSEAAQg4BoBxNw1j1RoT5nnzMtOszMyr9BxFAUBCECgIAHEvCAwn5Ij5n9O3Ve//a7HotsJMmvBDwIQgEAoBBDzUDyZ0Q6dZs+zAE6m4rtwz5w3wGV0FA5BAALeE0DMvXfh8AaomLMArj9CZwHc8P7CGQhAwF8CiLm/vhtreZNiPnX/HrNyzX2NbVMP7DFlHk9jZD6225AAAhDwkABi7qHT8ppc5J65vZr9dydOpO41j1rgJi9v0Sn6JkN5rn2UXVnn+ARq3t5DOghAwCcCiLlP3ipo6/SOXiSyTTya1tt30Dy8e6ax7am9L5QamSPmBTsRySEAAS8IIOZeuKmckTrN3oSYZ42CXTwmtwNk9kDY8IMABCAQCgHEPBRPZrQDMe8vfNMLCxbAZXQUDkEAAt4TQMy9d+HwBqiYs5q9L+qI+fD+whkIQMBfAoi5v74ba7mKedFp9l8d/1XhhWU68nU9RMzHdhsSQAACHhJAzD10Wl6TV619MLo/vOWBfYXezY6Y5yVMOghAAAJuEEDM3fBDLVaUFfOij6a5Phq37WNkXktXo1AIQKBlAoh5yw6os/r107Mrt4uOzA+9ebTwNPtvPzhh3nrzaGObPNtui3TeOGJeZ4+jbAhAoC0CiHlb5Buot6mXxoiQN/myGK2rzEtj+NBKAx2PKiAAgcYJIOaNI2+uwrIvjSk6MpfXqi67emujgi71yUVE3hG5pmNk3lz/oyYIQKA5Aoh5c6wbr6kpMVeh9CFEzBvvhlQIAQg0QAAxbwByW1WwAK7/fLleaCDmbfVG6oUABOokgJjXSbflshHztJjrV9Nk1oIfBCAAgVAIIOaheDKjHWXFPOTnzPVDK8KGHwQgAIFQCCDmoXgyox1lxVynpEMMdTW7PLbHDwIQgEAoBBDzUDyZ0Y6yj6aFKOLaJu6ZZ3QUDkEAAt4TQMy9d+HwBui72fnQSv/euY7MhQ0/CEAAAqEQQMxD8WRGO8qKeZnnzBdfubHR58ylPp4zz3A6h+q1CQ4AAAkwSURBVCAAgU4SQMwDdntZMf/k9MlCL2Px6Q1wTLMH3OFpGgQ6TAAxD9j5ZcVc7y8XCUXQ5fWqTW1l382uj6YxzR5wx6dpEOggAcQ8YKermBf9nnkREfctLffMA+7wNA0CHSaAmAfsfB5N6y9804sOFXMeTQu449M0CHSQAGIesNMR87SY89KYgDs8TYNAhwkg5gE7HzFHzAPu3jQNAhCwCCDmFozQojKVLN/+3vLAPvPebz4bucmz6PqdcJ2SDjFkZB5aL6c9EICAEEDMA+4Hrom5rHh/682jQ7fe/lfM03t/YiT84e5etB048PpA+jLPltsXJTyaFnCHp2kQ6DABxDxg5xd5nauM3uczMn9q7wtm/dbHzMo198XbwiWTcZladhWhvDCmt+9goWfhVdAR84A7PE2DQIcJIOYBO18fTbtxw5Mjp9hlCl4eX1OhVeHLG8oz35q3qXDRlRsQ84D7Lk2DAASKEUDMi/HyKrWKeZ53s89HzEX0p+7fY1auuTfaRGjrFHUpn5G5V10RYyEAgZoJIOY1A26z+CKr2ec7zT5qFD/u7XAP754xeTZ5uxz3zNvsUdQNAQi4SgAxd9UzFdilI/M8b4CrU8xHCX3T57hnXkHHoggIQMA5Aoi5cy6pziAV8zzT7Ih5ddwpCQIQgEDTBBDzpok3WB9inn5pDCPzBjsgVUEAAo0RQMwbQ918RdM7etFCNKbZ+6KOmDffD6kRAhConwBiXj/j1mpo8jnzpu99l61PVt3LSnthww8CEIBAKAQQ81A8mdGOMtPsS6/aWur57bLi2nQ+Xuea0VE4BAEIeE8AMffehcMbUEbMl10dtpjzCdTh/YUzEICAvwQQc399N9byMtPs/3ZFuTerNT3CLlsf98zHdhsSQAACHhJAzD10Wl6Ty4zMRezKCqUP+RDzvL2HdBCAgE8EEHOfvFXQVsS8v4pdLzQQ84KdiOQQgIAXBBBzL9xUzkjEHDEv13PIBQEI+EYAMffNYwXsRcwR8wLdhaQQgIDHBBBzj503znTEHDEf10c4DwEIhEEAMQ/Dj5mtQMwR88yOwUEIQCA4Aoh5cC7tN6iImN+44cnozWgLJybjcNEVG6O4/W1yOabfLddQnk2300gZek5CPS9xLV+Oyb6UJ8fsNFqWptF0elxCOaabfTxps5Shddrp5POw/CAAAQiEQgAxD8WTGe0oIub2V9Ns0Qs1Lu+t5wcBCEAgFAKIeSiezGiHvjRm3dSPzHu/+Wzsdu+jLxnZZl46PnZ7+rnDZtee1+ItT5660lyycls0M7B+eo85cuyDkdsrbxw3+196K4MWhyAAAQj4SwAx99d3Yy2XqWQZWcuoO4+Y+5pGvtcu7ZSZCH4QgAAEukgAMQ/Y6zJSFZGT++G+CnUeu1XMGXEH3JlpGgQgMJIAYj4Sj98ni3zPPI9ouppGxfyZ3qt+OwzrIQABCJQkgJiXBOdDNqbZffASNkIAAhCYPwHEfP4MnS1BF8Bxz9xZF2EYBCAAgUoIIOaVYHSzEJ1mv2TllOm99K6579GXzZ0PPZ/ann7uSHROQ0mTlXbX3teMbHJOypN4VnlyXM5LeXJe4rpp2fZ5LU+OZZWXPGbXK3kvvHxTtDZAVrLzgwAEINBFAoh5wF7XafZQnxVPtot75gF3ZpoGAQiMJICYj8Tj98n3Pzxlzp+YNItWbDIi7MO2Zddsj86NSyfnNe2wsvIel7Ls+ux43jLsdHJL4cxnZ/12GNZDAAIQKEkAMS8JjmwQgAAEIAABVwgg5q54AjsgAAEIQAACJQkg5iXBkQ0CEIAABCDgCgHE3BVPYAcEIAABCECgJAHEvCQ4skEAAhCAAARcIYCYu+IJ7IAABCAAAQiUJICYlwRHNghAAAIQgIArBBBzVzyBHRCAAAQgAIGSBBDzkuDIBgEIQAACEHCFAGLuiiewAwIQgAAEIFCSAGJeEhzZIAABCEAAAq4QQMxd8QR2QAACEIAABEoSQMxLgiMbBCAAAQhAwBUCiLkrnsAOCEAAAhCAQEkCiHlJcGSDAAQgAAEIuEIAMXfFE9gBAQhAAAIQKEkAMS8JjmxpAm9vmzQLJibNgm1H0yc5AgEIQAACtRFAzGtD272CEfPu+ZwWQwACbhBAzN3wQxBWIOZBuJFGQAACHhJAzD10WmGTT/bMSpn+npgyU9umZqfC5/ZnTmppR81UdGxuqnwuvnLmtCaYDeOyrHTX94ykSom5nTaaes9Xx+kZ20arnoHp+9Nm5nrrnNg7cH7QbPYgAAEIhEwAMQ/Zu9o2S1RVnPuCucu8rekGwr5YTh2aO3Fo19yFwJSJLwKk7Ewx7wu31jlQfLSTriNtVz9NX6y17L4deiExvK507RyBAAQgEAoBxDwUT45qRyzmffEz8bFJE4u1UZEcHPHOCmSWqA5WqoK6YFuvP2pOjZaL1pGuNxb8uYuIyAq90LCPDZrHHgQgAIFgCSDmwbrWalgs3JaYW8IdibmK4URf3FWcZ8W8L8LDRr+aPlrRrlP2tpiXqiMt5pn1aH2IueV4ohCAQFcIIOZd8HSWmMfHZsU7FkhLDPVY4ZG5lDFCuBfkqKN/wZAW88yReRf8SBshAAEIDCGAmA8BE9ThWLj7I3MVahXWWCAn9B56xkg8Fuh+OUZG+HPiHJc5NxqP9+fKzFNHnCYW/LSYR3VmLdCTdsb5gvIgjYEABCAwkgBiPhJPICdjMR+8F65Crq3si6+k22Wm5l4C0x8lG2Pfa4+n04eIuS26WleeOgbTWDbbU/bGEnmdYpcQMVd3EkIAAh0igJh3wdmxmNsjal8a3hftgYsKX8zHTghAAAINEEDMG4DcehU+i3nm1H7rRDEAAhCAgFMEEHOn3FGTMT6JeWyrNb0+4eOMQk2+pFgIQAACGQQQ8wwoHIIABCAAAQj4RAAx98lb2AoBCEAAAhDIIICYZ0DhEAQgAAEIQMAnAoi5T97CVghAAAIQgEAGAcQ8AwqHIAABCEAAAj4RQMx98ha2QgACEIAABDIIIOYZUDgEAQhAAAIQ8IkAYu6Tt7AVAhCAAAQgkEEAMc+AwiEIQAACEICATwQQc5+8ha0QgAAEIACBDAKIeQYUDkEAAhCAAAR8IoCY++QtbIUABCAAAQhkEPh/4Kuz3BnT4uYAAAAASUVORK5CYII=;" vertex="1" parent="1">
          <mxGeometry x="560" y="590" width="399" height="211.09" as="geometry" />
        </mxCell>
        <mxCell id="ZKgTmK-BCxke4X23e9xm-6" value="&#xa;&#xa;&lt;span style=&quot;color: rgb(61, 61, 78); font-family: &amp;quot;droid serif&amp;quot;, georgia, serif; font-size: 18px; font-style: normal; font-weight: 400; letter-spacing: normal; text-indent: 0px; text-transform: none; word-spacing: 0px; background-color: rgb(255, 255, 255); display: inline; float: none;&quot;&gt;A package is a directory of Python modules that contains an additional&lt;span&gt;&amp;nbsp;&lt;/span&gt;&lt;/span&gt;&lt;code style=&quot;box-sizing: border-box; font-family: menlo, monaco, consolas, &amp;quot;courier new&amp;quot;, monospace; font-size: 16.2px; color: rgb(199, 37, 78); background-color: rgb(249, 242, 244); border-radius: 4px; padding: 2px 4px; font-style: normal; font-weight: 400; letter-spacing: normal; text-indent: 0px; text-transform: none; word-spacing: 0px;&quot;&gt;__init__.py&lt;/code&gt;&lt;span style=&quot;color: rgb(61, 61, 78); font-family: &amp;quot;droid serif&amp;quot;, georgia, serif; font-size: 18px; font-style: normal; font-weight: 400; letter-spacing: normal; text-indent: 0px; text-transform: none; word-spacing: 0px; background-color: rgb(255, 255, 255); display: inline; float: none;&quot;&gt;&lt;span&gt;&amp;nbsp;&lt;/span&gt;file, which distinguishes a package from a directory that is supposed to contain multiple Python scripts. Packages can be nested to multiple depths if each corresponding directory contains its own&lt;span&gt;&amp;nbsp;&lt;/span&gt;&lt;/span&gt;&lt;code style=&quot;box-sizing: border-box; font-family: menlo, monaco, consolas, &amp;quot;courier new&amp;quot;, monospace; font-size: 16.2px; color: rgb(199, 37, 78); background-color: rgb(249, 242, 244); border-radius: 4px; padding: 2px 4px; font-style: normal; font-weight: 400; letter-spacing: normal; text-indent: 0px; text-transform: none; word-spacing: 0px;&quot;&gt;__init__.py&lt;/code&gt;&lt;span style=&quot;color: rgb(61, 61, 78); font-family: &amp;quot;droid serif&amp;quot;, georgia, serif; font-size: 18px; font-style: normal; font-weight: 400; letter-spacing: normal; text-indent: 0px; text-transform: none; word-spacing: 0px; background-color: rgb(255, 255, 255); display: inline; float: none;&quot;&gt;&lt;span&gt;&amp;nbsp;&lt;/span&gt;file.&lt;/span&gt;&#xa;&#xa;" style="text;html=1;strokeColor=none;fillColor=none;align=center;verticalAlign=middle;whiteSpace=wrap;rounded=0;" vertex="1" parent="1">
          <mxGeometry x="30" y="910" width="610" height="140" as="geometry" />
        </mxCell>
      </root>
    </mxGraphModel>
  </diagram>
</mxfile>
